<?xml version="1.0" encoding="utf-8"?>
<!-- Generator: Adobe Illustrator 26.2.1, SVG Export Plug-In . SVG Version: 6.00 Build 0)  -->
<svg version="1.1" id="Layer_1" xmlns="http://www.w3.org/2000/svg" xmlns:xlink="http://www.w3.org/1999/xlink" x="0px" y="0px"
	 viewBox="0 0 339 340.9" style="enable-background:new 0 0 339 340.9;" xml:space="preserve">
<style type="text/css">
	.st0{fill-rule:evenodd;clip-rule:evenodd;fill:currentColor;}
</style>
<g id="Page-1">
	<g id="Vertical">
		<path id="Fill-1" class="st0" d="M247.3,122.5c3.1-6.7,5.4-13.9,6.7-21.5c21,10.8,30.6,18.8,32.4,22.2
			C282.9,125.1,269.7,125.7,247.3,122.5L247.3,122.5z M160.1,56.9c-20.4,6.5-39.8,13.7-56.9,21c1-31.2,22-56.1,48-56.1
			c14.1,0,26.7,7.4,35.5,19.1c1.7,2.2,3.1,4.6,4.5,7.1C174,52.5,161.4,56.5,160.1,56.9L160.1,56.9z M52.3,48.6
			c3.3-1.7,15.9-2.7,39.2,0.7C88.3,56,86,63.2,84.6,70.7C64.5,60.4,54.1,52.2,52.3,48.6L52.3,48.6z M110,148.5
			c5.8,5.5,12.3,10.1,19.4,13.9l9.7,74.2c-0.4-0.2-0.8-0.4-1.2-0.6c-1.3-0.6-2.6-1.1-3.9-1.6c0,0,0,0-0.1,0
			c-0.7-0.3-1.4-0.5-2.1-0.7l-24.4-83.6C106.9,148.5,108.8,147.3,110,148.5L110,148.5z M153.6,187.9l0.4,1.6
			c0.4,1.5,1.7,3.2,4.6,3.2H180c2.9,0,4.3-1.7,4.6-3.2l0.4-1.6c1.8-7.9,6.2-16.7,16.6-22l-8.6,66.2c-16-10.7-30.5-12.2-35.7-12.4
			c0,0-0.1,0-0.1,0c-1,0-1.8,0.9-1.6,1.9l4.1,28.4c0,0.1-0.1,0.2-0.2,0.1c-3.6-3.5-7.7-6.6-12.2-9.3c0,0,0,0,0,0
			c-0.2-0.1-0.4-0.2-0.6-0.3l-9.7-74.6C147.4,171.3,151.8,180,153.6,187.9L153.6,187.9z M228.6,148.5c1.2-1.1,3.1,0,2.7,1.6
			l-26.6,91.4c-1.3-1.3-2.7-2.5-4-3.6c0,0,0,0,0,0l0,0c-0.4-0.3-0.7-0.6-1.1-0.9l9.7-74.6C216.4,158.6,222.9,153.9,228.6,148.5
			L228.6,148.5z M200.7,249.8c-4.5,10.6-16.3,18.4-28.7,20.8c-0.5,0.1-1-0.1-1-0.5c-0.8-5.5-5-34.7-5.9-40.4
			c-0.1-0.5,0.4-0.8,0.9-0.7c9.4,1.9,25.3,10.2,34.1,19.1C200.9,248.8,200.8,249.5,200.7,249.8L200.7,249.8z M184.2,299.5l-29.6,1.6
			l-2.7-21.1l3.5-0.4l8.4-0.9c0.1,0,0.1,0,0.1,0.1l0.8,5.6c0.1,0.9,0.9,1.5,1.8,1.4c0,0,0.1,0,0.1,0l17.1-1.7v0l2.7-0.3L184.2,299.5
			z M124.2,274.8c-0.3,0-0.6-0.2-0.6-0.4l-6.3-35.1c-0.1-0.4,0.3-0.7,0.6-0.6c17.8,2.3,35.4,13.3,43.8,27.1c0.2,0.3,0.3,0.7,0.4,1.1
			c0.1,1,0.4,3,0.6,3.8c0,0.2-0.1,0.3-0.3,0.3L124.2,274.8z M255.4,87c0-0.3,0-0.6,0-0.9c0-0.4,0-0.8,0-1.3
			c32.7-15.8,47.5-29.4,44-40.3c-2-6.4-9.8-10-23-10.5c-1.3-0.1-2.7-0.1-4.1-0.1c-9.5,0-20.7,1.3-32.3,3.2
			C224.5,14.7,198.7,0,169.3,0C140,0,114.1,14.7,98.6,37.1c-35.8-6-55.8-3.5-59.3,7.4c-2,6.3-0.6,16.8,34.3,35.4
			c3,1.6,6.3,3.3,9.6,4.9c0,0.4,0,0.9,0,1.3c0,0.3,0,0.6,0,0.9c-3.3,1.6-6.6,3.3-9.6,4.9c-34.9,18.6-36.3,29.1-34.3,35.4
			c3.4,10.6,22.3,13.3,56.3,7.9l28.1,96.3c-1.4-0.3-2.6-0.5-3.6-0.6c0,0,0,0-0.1,0c-3.7-0.5-7.5-0.7-11.2-0.6h0
			c-0.9,0-1.5,0.8-1.4,1.7l9.1,50.4c0.1,0.7,0.8,1.2,1.5,1.2c0,0,0.1,0,0.1,0l19.7-2l0.4,0l5.9,20.3l-1.6,0.1c-3,0.1-4-0.5-5.8-1.8
			c-2-1.5-2.5-2.8-5.2-2.6l-18.1,0.8c-0.8,0-1.5,0.7-1.5,1.6c0,7.3,3.7,30.8,18.6,31.6c1.1,0.1,2.5,0,4.2,0
			c4.9,10.9,14.8,9.7,17.7,9.4c9.2-0.8,57.2-16.2,62-19.7c4.8-3.6,9.8-15.9,9.8-15.9s14.4-4.9,22.2-7.2c1-0.3,0.8-1.8-0.3-1.8
			l-50.9,2.8l4.8-16.4l3.7-0.4l24.9-2.5c0.8-0.1,1.3-0.9,1-1.6c-5.3-11.8-11.3-21.2-17.6-28.7c-0.6-0.7-1.2-1.3-1.7-2L240,145.6
			c-22.9-3.4-48.1-9.9-65.3-14.7c-7,4.8-15,7.5-23.5,7.5c-18,0-33.6-12-41.8-29.7c-3-1.2-6-2.4-9.1-3.7c-4.8,2.1-9.2,4.2-13.3,6.2
			c1.2,3.9,2.7,7.7,4.4,11.3c-23.2,3.3-35.7,2.4-39.1,0.6c3.5-6.9,37.7-30.1,111.9-53.7C238.3,45.9,279.6,45,286.4,48.6
			C284.7,51.9,275,60,254,70.8c-0.6-3.6-1.5-7.1-2.6-10.6c-14.1,1.9-31.8,5.3-52.8,10.8c0.4,3,0.6,6,0.6,9.1
			c0,11.2-2.7,21.6-7.2,30.5c-8.7-2.4-18-5.1-27.9-8.3c-11.3-3.6-21.6-7.2-31-10.7c-6.5,2.4-12.5,4.8-18.2,7.1
			c14.1,5.6,29.3,11.1,45.2,16.2c3.1,1,72.9,23,112.2,23c1.4,0,2.8,0,4.1-0.1c13.2-0.6,20.9-4.1,23-10.6
			C302.9,116.4,288,102.8,255.4,87L255.4,87z"/>
		<g id="Clip-6">
		</g>
	</g>
</g>
</svg>
