<svg xmlns="http://www.w3.org/2000/svg" xmlns:xlink="http://www.w3.org/1999/xlink" width="120" height="120" viewBox="0 0 120 120">
    <defs>
        <rect id="166wfcc23a" width="120" height="120" x="0" y="0" rx="60"/>
    </defs>
    <g fill="none" fill-rule="evenodd">
        <g>
            <g transform="translate(-128 -110) translate(128 110)">
                <mask id="lqwfgnxxyb" fill="#fff">
                    <use xlink:href="#166wfcc23a"/>
                </mask>
                <use fill="none" fill-opacity=".4" xlink:href="#166wfcc23a"/>
                <path fill="#FFF" fill-rule="nonzero" d="M60.58 60.86c1.951 0 3.713-.51 5.287-1.53 1.573-1.02 2.821-2.386 3.744-4.1.923-1.714 1.384-3.617 1.384-5.709 0-2.003-.466-3.854-1.397-5.55-.932-1.696-2.184-3.054-3.758-4.074-1.573-1.02-3.326-1.529-5.26-1.529-1.951 0-3.718.514-5.3 1.543-1.582 1.028-2.839 2.386-3.77 4.073-.932 1.688-1.389 3.534-1.371 5.537.017 2.092.483 3.995 1.397 5.709.914 1.714 2.158 3.08 3.731 4.1 1.573 1.02 3.344 1.53 5.313 1.53zm15.056 23.65c2.426 0 4.095-.408 5.01-1.225.914-.818 1.37-1.912 1.37-3.283 0-1.582-.505-3.239-1.516-4.97-1.01-1.732-2.46-3.349-4.35-4.852-1.89-1.503-4.153-2.724-6.79-3.665-2.636-.94-5.563-1.41-8.78-1.41-3.234 0-6.165.47-8.793 1.41-2.628.94-4.891 2.162-6.79 3.665-1.898 1.503-3.353 3.12-4.364 4.852-1.01 1.731-1.516 3.388-1.516 4.97 0 1.371.457 2.465 1.371 3.283.914.817 2.593 1.226 5.036 1.226h30.112z" mask="url(#lqwfgnxxyb)"/>
            </g>
        </g>
    </g>
</svg>
