<svg width="20" height="21" viewBox="0 0 20 21" fill="none" xmlns="http://www.w3.org/2000/svg">
<path fill-rule="evenodd" clip-rule="evenodd" d="M13.4795 17.4629C13.4014 19.3477 11.9268 20.9883 9.85645 20.9883C7.7959 20.9883 6.32129 19.3379 6.24316 17.4629H2.12207C1.19434 17.4629 0.647461 16.9844 0.647461 16.2812C0.647461 15.4878 1.29859 14.7588 1.99848 14.0471L2.32277 13.7197L2.4834 13.5566C3.12793 12.8828 3.30371 11.4961 3.38184 10.373C3.4502 6.52539 4.44629 4.03516 7.04395 3.09766C7.36621 1.82812 8.4209 0.8125 9.85645 0.8125C11.3018 0.8125 12.3467 1.82812 12.6787 3.09766C15.2764 4.03516 16.2725 6.52539 16.3408 10.373C16.4189 11.4961 16.5947 12.8828 17.2393 13.5566C17.2917 13.611 17.3448 13.6653 17.3983 13.7197L17.7206 14.0471C18.4176 14.7588 19.0752 15.4878 19.0752 16.2812C19.0752 16.9844 18.5186 17.4629 17.6006 17.4629H13.4795ZM2.54199 15.9883V15.8711C2.65424 15.684 2.93375 15.3854 3.25337 15.044L3.2534 15.044C3.43428 14.8507 3.628 14.6438 3.81152 14.4355C4.51465 13.6543 4.84668 12.4043 4.93457 10.4902C5.0127 6.23242 6.28223 4.86523 7.95215 4.41602C8.19629 4.35742 8.33301 4.23047 8.34277 3.98633C8.37207 2.96094 8.95801 2.24805 9.85645 2.24805C10.7646 2.24805 11.3408 2.96094 11.3799 3.98633C11.3896 4.23047 11.5166 4.35742 11.7607 4.41602C13.4404 4.86523 14.71 6.23242 14.7881 10.4902C14.876 12.4043 15.208 13.6543 15.9014 14.4355C16.0665 14.6194 16.2377 14.8023 16.3999 14.9756C16.7459 15.3454 17.0512 15.6716 17.1709 15.8711V15.9883H2.54199ZM11.9561 17.4629C11.8779 18.7812 11.0381 19.6211 9.85645 19.6211C8.68457 19.6211 7.83496 18.7812 7.7666 17.4629H11.9561Z" fill="currentColor"/>
</svg>
