<svg width="19" height="22" viewBox="0 0 19 22" fill="none" xmlns="http://www.w3.org/2000/svg">
<path fill-rule="evenodd" clip-rule="evenodd" d="M18.4277 16.2812C18.4277 16.9844 17.8711 17.4629 16.9531 17.4629H1.47461C0.546875 17.4629 0 16.9844 0 16.2812C0 15.4878 0.651131 14.7588 1.35102 14.0471L1.67531 13.7197L1.83594 13.5566C2.48047 12.8828 2.65625 11.4961 2.73438 10.373C2.80273 6.62305 3.79883 4.03516 6.39648 3.09766C6.75781 1.82812 7.77344 0.8125 9.20898 0.8125C10.6543 0.8125 11.6602 1.82812 12.0312 3.09766C14.6289 4.03516 15.625 6.62305 15.6934 10.373C15.7715 11.4961 15.9473 12.8828 16.5918 13.5566C16.6443 13.611 16.6974 13.6653 16.7508 13.7197L17.0731 14.0471C17.7702 14.7588 18.4277 15.4878 18.4277 16.2812ZM12.207 18.791C12.0801 20.1582 10.8691 21.3691 9.20898 21.3691C7.55859 21.3691 6.34766 20.1582 6.2207 18.791H12.207Z" fill="currentColor"/>
</svg>
