<svg width="14" height="12" viewBox="0 0 14 12" fill="none" xmlns="http://www.w3.org/2000/svg">
<path fill-rule="evenodd" clip-rule="evenodd" d="M6.24844 1.96185L6.76787 0.476733C6.83388 0.287996 7.10641 0.284011 7.17821 0.470734L7.75156 1.96185L8.34305 2.03767C9.21471 0.748735 10.9604 -0.479494 11.4873 0.18769C11.8084 0.594406 11.6616 0.876066 11.4313 1.31779C11.2151 1.7324 10.9254 2.28802 10.8802 3.22041L11.3316 3.85727C11.7966 3.47494 11.9877 3.18696 12.1721 2.50773C12.6702 2.55318 13.1683 2.94742 12.8726 3.4327C13.1522 3.50122 13.256 3.48214 13.8376 3.372C14.0189 3.46296 14.0867 3.81173 13.8376 4.28184C13.5681 4.4356 13.421 4.51869 13.2461 4.60027L13.7442 4.76707C13.776 5.23543 13.7064 5.41886 13.573 5.73753C13.3454 5.70948 13.2246 5.7008 13.0594 5.73753C13.3327 5.88071 13.3633 5.93257 13.3551 6.01047C13.3093 6.25073 13.2423 6.34367 13.1239 6.50774L13.1216 6.51086C12.8228 6.53984 12.6549 6.55549 12.3122 6.51086C12.1213 6.68937 12.0608 6.77067 12.0165 6.88994C12.1951 7.43691 12.1931 7.68522 12.1721 8.11818C10.589 10.6221 8.86344 11.8483 6.99558 12C5.12771 11.8483 3.41096 10.6221 1.82787 8.11818C1.80687 7.68522 1.80486 7.43691 1.98352 6.88994C1.93918 6.77067 1.87874 6.68937 1.68778 6.51086C1.3451 6.55549 1.17722 6.53984 0.878381 6.51086L0.876136 6.50775C0.757737 6.34367 0.690666 6.25073 0.644901 6.01047C0.636662 5.93257 0.667262 5.88071 0.940626 5.73753C0.775406 5.7008 0.654631 5.70948 0.426985 5.73753C0.293575 5.41886 0.224 5.23543 0.255766 4.76707L0.753858 4.60027C0.578997 4.51869 0.431939 4.4356 0.162374 4.28184C-0.0866898 3.81173 -0.0189238 3.46296 0.162374 3.372C0.743979 3.48214 0.847791 3.50122 1.12743 3.4327C0.831685 2.94742 1.32978 2.55318 1.82787 2.50773C2.01232 3.18696 2.20345 3.47494 2.6684 3.85727L3.1198 3.22041C3.07458 2.28802 2.7849 1.7324 2.56873 1.31779C2.33843 0.876066 2.19158 0.594406 2.51275 0.18769C3.0396 -0.479494 4.78529 0.748735 5.65695 2.03767L6.24844 1.96185ZM10.4787 5.3457C10.4903 5.39806 10.4646 5.4516 10.4162 5.477L8.83486 6.3065C8.7583 6.34666 8.66405 6.29971 8.65367 6.2156C8.53789 5.27743 8.61991 4.73445 9.4223 4.01923C9.46023 3.98541 9.51645 3.97839 9.56149 4.00255C10.1494 4.31785 10.3275 4.66439 10.4787 5.3457ZM4.38293 4.00255C4.42798 3.97839 4.48419 3.98541 4.52213 4.01923C5.32452 4.73445 5.40654 5.27743 5.29076 6.2156C5.28038 6.29971 5.18612 6.34666 5.10956 6.3065L3.52822 5.477C3.47981 5.4516 3.45416 5.39806 3.46577 5.3457C3.61696 4.66439 3.795 4.31785 4.38293 4.00255ZM3.75796 6.73826L3.291 7.95133C4.52066 9.9529 5.43902 10.8324 6.96443 10.9082C8.48984 10.8324 9.4082 9.9529 10.6379 7.95133L10.1709 6.73826C10.069 6.83767 9.97062 6.93159 9.87516 7.02033C10.1243 8.69293 9.8129 8.86113 8.87897 7.81879C8.31206 8.18177 7.7488 8.36217 6.96443 8.45172C6.18006 8.36217 5.6168 8.18177 5.04989 7.81879C4.11596 8.86113 3.80459 8.69293 4.0537 7.02033C3.95824 6.93159 3.85991 6.83767 3.75796 6.73826ZM6.55858 5.26782C6.71499 5.07179 6.87368 4.897 6.96984 4.79437C7.06477 4.89765 7.22127 5.07329 7.37558 5.27004C7.22285 5.47724 7.0764 5.53583 6.95752 5.52764C6.83349 5.5191 6.69331 5.43602 6.55858 5.26782ZM6.93996 5.76965C7.15547 5.78449 7.35584 5.68063 7.52847 5.47429C7.57252 5.53638 7.61414 5.59845 7.65162 5.65911C7.57854 5.8539 7.46946 5.98327 7.34925 6.06291C7.21858 6.1495 7.0673 6.18231 6.91781 6.16939C6.62954 6.14447 6.3596 5.95156 6.27362 5.66427C6.31348 5.60013 6.35819 5.53434 6.40568 5.46857C6.55636 5.63877 6.73786 5.75573 6.93996 5.76965ZM7.48932 6.26352C7.60731 6.18534 7.71073 6.07717 7.7926 5.93825C7.91794 6.33533 7.59894 6.82924 6.97074 6.82924C6.34553 6.82924 6.01798 6.34233 6.13187 5.94914C6.29699 6.21645 6.59118 6.38472 6.89579 6.41105C7.09758 6.4285 7.30713 6.38424 7.48932 6.26352ZM7.10694 4.58029C7.0339 4.5023 6.90872 4.50167 6.83489 4.57901C6.74061 4.67775 6.51407 4.92099 6.3038 5.19293C6.20578 5.31969 6.11 5.45436 6.03251 5.58477C5.99298 5.65129 5.95764 5.71767 5.92907 5.78211C5.66474 6.37821 6.16693 7.07185 6.97074 7.07185C7.77767 7.07185 8.26174 6.37562 7.99856 5.78211C7.97007 5.71786 7.93502 5.65162 7.8959 5.58518C7.8192 5.45493 7.72478 5.32037 7.62828 5.19364C7.42157 4.92218 7.19965 4.6793 7.10694 4.58029Z" fill="#2F496D" fill-opacity="0.5"/>
</svg>
