<svg width="25" height="21" viewBox="0 0 25 21" fill="none" xmlns="http://www.w3.org/2000/svg">
<path fill-rule="evenodd" clip-rule="evenodd" d="M13.0917 2.5299C7.33704 2.5299 2.9685 6.27594 2.9685 10.5677C2.9685 11.4902 3.1647 12.3772 3.52839 13.2055C3.53723 13.2256 3.54523 13.2461 3.55235 13.2669C3.62918 13.4915 3.69895 13.8901 3.51707 14.3628C3.46684 14.4934 3.39015 14.6134 3.34005 14.6881C3.2811 14.7759 3.21354 14.8667 3.14826 14.9503C3.01837 15.1167 2.87404 15.2848 2.77325 15.393C2.71534 15.4552 2.65389 15.5191 2.58939 15.5837C2.62776 15.5915 2.66776 15.5996 2.70978 15.608C2.93905 15.6539 3.39958 15.7062 3.69128 15.694C3.88917 15.6858 4.0641 15.6671 4.23809 15.6483L4.24709 15.6473C4.35055 15.6361 4.46489 15.6237 4.57227 15.6168C4.8361 15.5996 5.10478 15.6488 5.35264 15.7787C5.41026 15.809 5.4639 15.8462 5.51233 15.8896C7.35391 17.5415 10.054 18.6056 13.0917 18.6056C18.8464 18.6056 23.215 14.8595 23.215 10.5677C23.215 6.27594 18.8464 2.5299 13.0917 2.5299ZM1.3985 10.5677C1.3985 5.11409 6.79751 0.9599 13.0917 0.9599C19.3859 0.9599 24.785 5.11409 24.785 10.5677C24.785 16.0214 19.3859 20.1756 13.0917 20.1756C9.77413 20.1756 6.75507 19.0413 4.61153 17.1883C4.55508 17.1932 4.48946 17.2002 4.4069 17.2092L4.3225 16.4287L4.4069 17.2092L4.40085 17.2098C4.22955 17.2283 4.00954 17.2521 3.7566 17.2627C3.30524 17.2815 2.71463 17.2101 2.40173 17.1475C1.77328 17.0217 1.44182 16.9379 0.668868 16.5783C0.406 16.456 0.231933 16.1988 0.216136 15.9093C0.20034 15.6199 0.345387 15.3452 0.593389 15.1951C0.93962 14.9854 1.32402 14.6455 1.62426 14.3231C1.69169 14.2507 1.8066 14.1176 1.91068 13.9842C1.96239 13.918 2.00551 13.8592 2.03638 13.8132C2.04667 13.7979 2.05378 13.7866 2.05838 13.7792C2.05967 13.7744 2.06047 13.7706 2.06098 13.7678C1.63277 12.7686 1.3985 11.6911 1.3985 10.5677Z" fill="currentColor"/>
<circle cx="8.16479" cy="10.5677" r="1.25" fill="currentColor"/>
<circle cx="13.1014" cy="10.5677" r="1.25" fill="currentColor"/>
<circle cx="18.0378" cy="10.5677" r="1.25" fill="currentColor"/>
</svg>
