<svg width="25" height="21" viewBox="0 0 25 21" fill="none" xmlns="http://www.w3.org/2000/svg">
<path fill-rule="evenodd" clip-rule="evenodd" d="M1.3985 10.5677C1.3985 5.11409 6.79751 0.9599 13.0917 0.9599C19.3859 0.9599 24.785 5.11409 24.785 10.5677C24.785 16.0214 19.3859 20.1756 13.0917 20.1756C9.77413 20.1756 6.75507 19.0413 4.61153 17.1883C4.55508 17.1932 4.48946 17.2002 4.4069 17.2092L4.40085 17.2098L4.40075 17.2098L4.40061 17.2098L4.40046 17.2099C4.22921 17.2284 4.00935 17.2521 3.7566 17.2627C3.30524 17.2815 2.71463 17.2101 2.40173 17.1475C1.77328 17.0217 1.44182 16.9379 0.668868 16.5783C0.406 16.456 0.231933 16.1988 0.216136 15.9093C0.20034 15.6199 0.345387 15.3452 0.593389 15.1951C0.93962 14.9854 1.32402 14.6455 1.62426 14.3231C1.69169 14.2507 1.8066 14.1176 1.91068 13.9842C1.96239 13.918 2.00551 13.8592 2.03638 13.8132C2.04667 13.7979 2.05378 13.7866 2.05838 13.7792C2.05967 13.7744 2.06047 13.7706 2.06098 13.7678C1.63277 12.7686 1.3985 11.6911 1.3985 10.5677ZM8.16479 11.8177C8.85515 11.8177 9.41479 11.2581 9.41479 10.5677C9.41479 9.87739 8.85515 9.31775 8.16479 9.31775C7.47444 9.31775 6.91479 9.87739 6.91479 10.5677C6.91479 11.2581 7.47444 11.8177 8.16479 11.8177ZM14.3514 10.5678C14.3514 11.2581 13.7917 11.8178 13.1014 11.8178C12.411 11.8178 11.8514 11.2581 11.8514 10.5678C11.8514 9.8774 12.411 9.31775 13.1014 9.31775C13.7917 9.31775 14.3514 9.8774 14.3514 10.5678ZM18.0378 11.8178C18.7281 11.8178 19.2878 11.2581 19.2878 10.5678C19.2878 9.8774 18.7281 9.31775 18.0378 9.31775C17.3474 9.31775 16.7878 9.8774 16.7878 10.5678C16.7878 11.2581 17.3474 11.8178 18.0378 11.8178Z" fill="currentColor"/>
</svg>
