<svg width="12" height="12" viewBox="0 0 12 12" fill="none" xmlns="http://www.w3.org/2000/svg">
<path d="M4.85053 11.3609C5.40225 11.3609 5.81501 11.1586 6.08883 10.754L11.4221 2.84604C11.5202 2.69891 11.5917 2.55179 11.6367 2.40466C11.6816 2.25754 11.7041 2.11654 11.7041 1.98168C11.7041 1.6016 11.5713 1.28283 11.3056 1.02536C11.04 0.767895 10.709 0.63916 10.3126 0.63916C10.0428 0.63916 9.81498 0.692289 9.62903 0.798546C9.44308 0.904803 9.27041 1.08462 9.11103 1.338L4.83214 8.00768L2.71721 5.5985C2.4434 5.28791 2.09602 5.13261 1.67508 5.13261C1.27865 5.13261 0.949666 5.26134 0.68811 5.51881C0.426554 5.77628 0.295776 6.0971 0.295776 6.48126C0.295776 6.65699 0.324384 6.82046 0.381599 6.97167C0.438815 7.12288 0.543028 7.28227 0.69424 7.44983L3.67353 10.846C3.97186 11.1893 4.3642 11.3609 4.85053 11.3609Z" fill="white"/>
</svg>
