<svg width="8" height="13" viewBox="0 0 8 13" fill="none" xmlns="http://www.w3.org/2000/svg">
<path id="&#244;&#128;&#175;&#187;" d="M1.23047 12.3809C1.56315 12.3809 1.8457 12.2669 2.07812 12.0391L6.86328 7.35645C7.02734 7.19694 7.14583 7.03516 7.21875 6.87109C7.29167 6.70703 7.32812 6.52702 7.32812 6.33105C7.32812 6.13509 7.29167 5.95508 7.21875 5.79102C7.14583 5.62695 7.02734 5.46517 6.86328 5.30566L2.07812 0.629883C1.8457 0.402018 1.56315 0.288086 1.23047 0.288086C1.00716 0.288086 0.802083 0.342773 0.615234 0.452148C0.428385 0.561523 0.279134 0.708496 0.16748 0.893066C0.0558268 1.07764 0 1.28158 0 1.50488C0 1.84668 0.132161 2.14518 0.396484 2.40039L4.47754 6.32422L0.396484 10.2549C0.132161 10.5192 0 10.8223 0 11.1641C0 11.3828 0.0558268 11.5856 0.16748 11.7725C0.279134 11.9593 0.428385 12.1074 0.615234 12.2168C0.802083 12.3262 1.00716 12.3809 1.23047 12.3809Z" fill="currentColor"/>
</svg>
