<svg version="1.1" id="Capa_1" xmlns="http://www.w3.org/2000/svg" xmlns:xlink="http://www.w3.org/1999/xlink" x="0px" y="0px"
	 width="28.25px" height="28.25px" viewBox="0 0 28.25 28.25" style="enable-background:new 0 0 28.25 28.25;" xml:space="preserve"
>
<g>
	<path fill="currentColor" d="M14.125,0C6.337,0,0,6.337,0,14.125S6.337,28.25,14.125,28.25S28.25,21.913,28.25,14.125S21.913,0,14.125,0z M4,14.125
		C4,8.542,8.542,4,14.125,4c2.251,0,4.325,0.747,6.009,1.994L5.993,20.134C4.747,18.45,4,16.376,4,14.125z M14.125,24.25
		c-2.251,0-4.326-0.748-6.011-1.995l14.141-14.14c1.247,1.684,1.995,3.759,1.995,6.01C24.25,19.708,19.708,24.25,14.125,24.25z"/>
</g>
	<g>
</g>
	<g>
</g>
	<g>
</g>
	<g>
</g>
	<g>
</g>
	<g>
</g>
	<g>
</g>
	<g>
</g>
	<g>
</g>
	<g>
</g>
	<g>
</g>
	<g>
</g>
	<g>
</g>
	<g>
</g>
	<g>
</g>
</svg>
