<svg width="20" height="16" viewBox="0 0 20 16" fill="none" xmlns="http://www.w3.org/2000/svg">
<path d="M2.90771 11.3618H16.333L17.3218 7.32617C17.3291 7.32617 17.3438 7.32617 17.3584 7.32617C18.3765 7.32617 19.2114 6.49121 19.2114 5.46582C19.2114 4.44775 18.3838 3.61279 17.3584 3.61279C16.333 3.61279 15.5054 4.45508 15.5054 5.46582C15.5054 5.74414 15.564 6.01514 15.6738 6.24951L13.5498 7.78027C13.3301 7.93408 13.1763 7.88281 13.0591 7.70703L10.5322 3.97168C11.0889 3.64941 11.4697 3.0415 11.4697 2.35303C11.4697 1.33496 10.6348 0.5 9.6167 0.5C8.58398 0.5 7.75635 1.33496 7.75635 2.35303C7.75635 3.0415 8.13721 3.64941 8.69385 3.97168L6.16699 7.70703C6.0498 7.87549 5.91797 7.92676 5.70557 7.77295L3.55225 6.22021C3.65479 5.99316 3.71338 5.73682 3.71338 5.46582C3.71338 4.45508 2.87842 3.61279 1.86035 3.61279C0.834961 3.61279 0 4.44775 0 5.46582C0 6.49121 0.834961 7.32617 1.86035 7.32617C1.875 7.32617 1.89697 7.32617 1.91162 7.32617L2.90771 11.3618ZM3.18604 12.5264L3.42773 13.5005C3.72803 14.709 4.38721 15.3242 5.64697 15.3242H13.5864C14.8462 15.3242 15.5054 14.7236 15.7983 13.5005L16.04 12.5264H3.18604Z" fill="#2F496D"/>
</svg>
