<svg width="22" height="20" viewBox="0 0 22 20" fill="none" xmlns="http://www.w3.org/2000/svg">
<path fill-rule="evenodd" clip-rule="evenodd" d="M13.4492 19.4902V3.55273L8.625 0.603516C8.45898 0.496094 8.26367 0.417969 8.07812 0.378906V16.541L13 19.3047C13.1465 19.3828 13.3027 19.4512 13.4492 19.4902ZM1.81836 19.1973C2.07227 19.1973 2.31641 19.1191 2.63867 18.9434L6.74023 16.7266V0.544922C6.56445 0.632812 6.36914 0.730469 6.19336 0.828125L1.56445 3.48438C0.978516 3.80664 0.705078 4.27539 0.705078 4.92969V18.0742C0.705078 18.7871 1.11523 19.1973 1.81836 19.1973ZM15.0703 19.334C14.9824 19.3926 14.875 19.4316 14.7773 19.4609V3.36719L19.084 0.974609C19.4062 0.798828 19.6504 0.720703 19.9043 0.720703C20.6074 0.720703 21.0176 1.12109 21.0176 1.84375V14.998C21.0176 15.6523 20.7441 16.1211 20.1582 16.4434L15.0703 19.334Z" fill="currentColor"/>
</svg>
