<svg width="22" height="20" viewBox="0 0 22 20" fill="none" xmlns="http://www.w3.org/2000/svg">
<path fill-rule="evenodd" clip-rule="evenodd" d="M15.0605 19.334C14.7676 19.5 14.4258 19.5879 14.084 19.5879C13.7227 19.5879 13.3418 19.4902 12.9902 19.2949L7.58984 16.2676L2.61914 18.9434C2.30664 19.1191 2.05273 19.207 1.80859 19.207C1.10547 19.207 0.705078 18.7969 0.705078 18.0742V4.93945C0.705078 4.28516 0.96875 3.81641 1.54492 3.48438L6.62305 0.59375C6.92578 0.417969 7.27734 0.320312 7.62891 0.320312C7.9707 0.320312 8.3125 0.417969 8.61523 0.59375L13.918 3.8457L19.0938 0.964844C19.416 0.789062 19.6699 0.710938 19.9141 0.710938C20.6172 0.710938 21.0176 1.11133 21.0176 1.83398V14.9883C21.0176 15.6426 20.7539 16.1113 20.168 16.4336L15.0605 19.334ZM2.27734 17.0293C2.27734 17.127 2.32617 17.1855 2.4043 17.1855C2.44092 17.1855 2.47754 17.1691 2.51416 17.1526C2.52637 17.1471 2.53857 17.1416 2.55078 17.1367L6.95508 14.7148V2.24414C6.83789 2.3125 6.73047 2.37109 6.60352 2.43945L2.59961 4.7832C2.36523 4.91992 2.27734 5.08594 2.27734 5.32031V17.0293ZM13.1953 17.4883C13.1131 17.4413 13.0274 17.3979 12.9403 17.3537C12.8825 17.3244 12.8241 17.2948 12.7656 17.2637L8.52734 14.8711V2.44922C8.57617 2.47852 8.62988 2.50781 8.68359 2.53711C8.7373 2.56641 8.79102 2.5957 8.83984 2.625L13.1953 5.28125V17.4883ZM14.7676 5.18359V17.6641C14.9141 17.5957 15.0605 17.5078 15.207 17.4199L19.123 15.1445C19.3477 15.0078 19.4453 14.8418 19.4453 14.5977V2.88867C19.4453 2.79102 19.3965 2.73242 19.3086 2.73242C19.2695 2.73242 19.2207 2.75195 19.1719 2.78125L14.7676 5.18359Z" fill="currentColor"/>
</svg>
