<svg width="17" height="15" viewBox="0 0 17 15" fill="none" xmlns="http://www.w3.org/2000/svg">
<path fill-rule="evenodd" clip-rule="evenodd" d="M16 7.84615C16 8.69569 15.8087 9.50397 15.4638 10.2363L10.5129 6.42776C10.6384 6.11027 11.695 3.6473 14.5 3C14.6361 4.38213 15.0687 5.27634 15.4345 6.03262C15.7406 6.66536 16 7.20155 16 7.84615ZM3.46571 5.52987L1.38763 3.93128C0.949889 3.59453 0.86801 2.96668 1.20475 2.52894C1.5415 2.09119 2.16935 2.00931 2.60709 2.34606L15.7041 12.4212C16.1419 12.7579 16.2237 13.3858 15.887 13.8235C15.5503 14.2613 14.9224 14.3432 14.4847 14.0064L13.0284 12.8861C12.0122 13.4935 10.8007 13.8462 9.49997 13.8462C5.90997 13.8462 2.99997 11.16 2.99997 7.84615C2.99997 6.9538 3.18125 6.20736 3.46571 5.52987ZM10.4993 6.41725L5.33415 2.44389C5.7845 1.7289 6.20673 0.947398 6.49997 0C10.2757 1.52481 10.4874 5.92824 10.4993 6.41725Z" fill="white"/>
</svg>
