<svg width="28" height="20" viewBox="0 0 28 20" fill="none" xmlns="http://www.w3.org/2000/svg">
<path fill-rule="evenodd" clip-rule="evenodd" d="M18.9346 9.98828C21.249 9.98828 23.1533 7.91797 23.1533 5.39844C23.1533 2.9082 21.2686 0.935547 18.9346 0.935547C16.6104 0.935547 14.7061 2.9375 14.7158 5.41797C14.7158 7.92773 16.6104 9.98828 18.9346 9.98828ZM7.68457 10.2031C9.69629 10.2031 11.3467 8.39648 11.3467 6.17969C11.3467 4.01172 9.71582 2.26367 7.68457 2.26367C5.67285 2.26367 4.0127 4.04102 4.02246 6.19922C4.02246 8.40625 5.67285 10.2031 7.68457 10.2031ZM16.2881 5.41797C16.2881 7.14648 17.499 8.51367 18.9346 8.51367C20.3701 8.51367 21.5811 7.12695 21.5811 5.39844C21.5811 3.69922 20.3896 2.41016 18.9346 2.41016C17.4795 2.41016 16.2783 3.71875 16.2881 5.41797ZM7.68457 8.74805C6.4834 8.74805 5.47754 7.60547 5.47754 6.19922C5.47754 4.82227 6.47363 3.71875 7.68457 3.71875C8.91504 3.71875 9.90137 4.80273 9.90137 6.17969C9.90137 7.60547 8.88574 8.74805 7.68457 8.74805ZM9.15918 17.7129C9.09082 18.3086 9.44238 18.8945 9.91113 19.1582H2.24512C0.926758 19.1582 0.262695 18.6211 0.262695 17.5371C0.262695 14.2852 3.58301 11.3164 7.6748 11.3164C9.28613 11.3164 10.7998 11.7461 12.0596 12.5762C11.6201 12.8789 11.2588 13.2207 10.9561 13.6113C10.0088 13.0547 8.89551 12.7617 7.6748 12.7617C4.48145 12.7617 1.71777 15.0273 1.71777 17.4492C1.71777 17.6348 1.80566 17.7129 2.01074 17.7129H9.15918ZM25.0576 19.1582C26.6885 19.1582 27.46 18.6699 27.46 17.5957C27.46 15.0371 24.2275 11.3359 18.9248 11.3359C13.6221 11.3359 10.3896 15.0371 10.3896 17.5957C10.3896 18.6699 11.1709 19.1582 12.792 19.1582H25.0576ZM11.9619 17.4102C11.9619 17.6152 12.0693 17.6836 12.3232 17.6836H25.5264C25.7803 17.6836 25.8877 17.6152 25.8877 17.4102C25.8877 15.8086 23.4072 12.8105 18.9248 12.8105C14.4424 12.8105 11.9619 15.8086 11.9619 17.4102Z" fill="currentColor"/>
</svg>
