<svg width="28" height="18" viewBox="0 0 28 18" fill="none" xmlns="http://www.w3.org/2000/svg">
<path fill-rule="evenodd" clip-rule="evenodd" d="M22.8604 4.53516C22.8604 6.97656 21.0537 8.85156 18.9541 8.85156C16.8643 8.85156 15.0576 6.97656 15.0576 4.55469C15.0479 2.16211 16.874 0.335938 18.9541 0.335938C21.0439 0.335938 22.8604 2.12305 22.8604 4.53516ZM11.1123 5.31641C11.1123 7.43555 9.54004 9.07617 7.71387 9.07617C5.89746 9.07617 4.31543 7.43555 4.31543 5.33594C4.30566 3.25586 5.90723 1.66406 7.71387 1.66406C9.53027 1.66406 11.1123 3.2168 11.1123 5.31641ZM9.68652 17.8945C8.6709 16.4199 9.91113 13.4512 12.0205 11.8301C10.9268 11.1074 9.53027 10.5703 7.71387 10.5703C3.30957 10.5703 0.555664 13.8223 0.555664 16.5273C0.555664 17.4062 1.03418 17.8945 2.27441 17.8945H9.68652ZM27.167 16.5957C27.167 17.4551 26.6201 17.8945 25.0869 17.8945H12.8213C11.2783 17.8945 10.7314 17.4551 10.7314 16.5957C10.7314 14.0762 13.8857 10.5996 18.9541 10.5996C24.0127 10.5996 27.167 14.0762 27.167 16.5957Z" fill="currentColor"/>
</svg>
