<svg width="40" height="40" viewBox="0 0 40 40" fill="none" xmlns="http://www.w3.org/2000/svg">
<path d="M13.334 18.3335C16.0954 18.3335 18.334 16.0949 18.334 13.3335C18.334 10.5721 16.0954 8.3335 13.334 8.3335C10.5726 8.3335 8.33398 10.5721 8.33398 13.3335C8.33398 16.0949 10.5726 18.3335 13.334 18.3335Z" fill="currentColor"/>
<path d="M39.778 0.266163C39.5322 -0.00157829 39.1399 -0.0748205 38.8112 0.0798019L19.7421 9.46782C19.3613 9.67941 19.2083 10.1482 19.3906 10.5437C19.7893 11.4144 20.0009 12.3796 20.0009 13.3334C20.0009 17.0093 17.011 20 13.3343 20C11.0947 20 9.01298 18.8786 7.76786 16.9996C7.52698 16.6342 7.0452 16.5219 6.6676 16.7318L2.29911 19.1586C2.10054 19.2693 1.95569 19.4564 1.89872 19.677C1.84013 19.8967 1.87593 20.1311 1.99475 20.3248C4.44918 24.2961 8.68746 26.6667 13.3343 26.6667C13.3951 26.6667 13.4546 26.6617 13.5151 26.6609L16.692 39.3685C16.775 39.6998 17.0517 39.9463 17.3886 39.9927C17.4261 39.9976 17.4635 40 17.5009 40C17.7988 40 18.0771 39.8405 18.2268 39.5769L39.8935 1.24354C40.0725 0.92697 40.0253 0.531462 39.778 0.266163Z" fill="currentColor"/>
<path d="M6.71712 14.1496C6.6862 13.8875 6.66667 13.6043 6.66667 13.3333C6.66667 9.65739 9.65657 6.66667 13.3333 6.66667C14.8649 6.66667 16.3639 7.20052 17.5521 8.17057C17.8174 8.38704 18.1852 8.41797 18.4814 8.25521L23.042 5.73893C23.265 5.61605 23.4196 5.39876 23.4619 5.14893C23.5042 4.89828 23.431 4.64193 23.2617 4.45313C20.7275 1.62354 17.1094 0 13.3333 0C5.98144 0 0 5.98145 0 13.3333C0 14.554 0.175781 15.7878 0.522461 16.9995C0.592448 17.2428 0.768229 17.4422 1.0026 17.5399C1.10677 17.5822 1.21419 17.6034 1.32324 17.6034C1.46159 17.6034 1.60156 17.5684 1.72526 17.5L6.29232 14.9805C6.59017 14.8161 6.75781 14.4873 6.71712 14.1496Z" fill="currentColor"/>
</svg>
