<svg width="46" height="46" viewBox="0 0 46 46" fill="none" xmlns="http://www.w3.org/2000/svg">
<circle cx="23" cy="23" r="21" fill="#198496"/>
<circle cx="23" cy="23" r="22" stroke="black" stroke-opacity="0.1" stroke-width="2"/>
<circle cx="22.8" cy="22.8" r="16.375" stroke="url(#paint0_linear_1809_24867)" stroke-width="1.25"/>
<mask id="mask0_1809_24867" style="mask-type:alpha" maskUnits="userSpaceOnUse" x="15" y="15" width="16" height="16">
<path fill-rule="evenodd" clip-rule="evenodd" d="M17.6915 17.6915C17.9468 17.4362 18.3608 17.4362 18.6161 17.6915L23 22.0754L27.3839 17.6915C27.6392 17.4362 28.0532 17.4362 28.3085 17.6915C28.5638 17.9468 28.5638 18.3608 28.3085 18.6161L23.9246 23L28.3085 27.3839C28.5638 27.6392 28.5638 28.0532 28.3085 28.3085C28.0532 28.5638 27.6392 28.5638 27.3839 28.3085L23 23.9246L18.6161 28.3085C18.3608 28.5638 17.9468 28.5638 17.6915 28.3085C17.4362 28.0532 17.4362 27.6392 17.6915 27.3839L22.0754 23L17.6915 18.6161C17.4362 18.3608 17.4362 17.9468 17.6915 17.6915Z" fill="#198496"/>
</mask>
<g mask="url(#mask0_1809_24867)">
<rect x="15" y="15" width="16" height="16" fill="url(#paint1_linear_1809_24867)"/>
</g>
<defs>
<linearGradient id="paint0_linear_1809_24867" x1="-1.16723" y1="22.8" x2="22.8" y2="46.7673" gradientUnits="userSpaceOnUse">
<stop stop-color="#B6FFA7"/>
<stop offset="1" stop-color="#5EF0D3"/>
</linearGradient>
<linearGradient id="paint1_linear_1809_24867" x1="11.7213" y1="23" x2="23" y2="34.2787" gradientUnits="userSpaceOnUse">
<stop stop-color="#B6FFA7"/>
<stop offset="1" stop-color="#5EF0D3"/>
</linearGradient>
</defs>
</svg>
