<svg xmlns="http://www.w3.org/2000/svg" width="20" height="20" viewBox="0 0 20 20">
    <g fill="none" fill-rule="evenodd">
        <g fill="#4B5E78" fill-rule="nonzero">
            <g>
                <g>
                    <g>
                        <path d="M10.05 20.842c.105 0 .22-.083.344-.249.125-.166.242-.391.353-.676.11-.285.203-.609.278-.971.075-.363.112-.74.112-1.134v-4.918l.083-.026c.22-.075.43-.173.631-.293.537-.321.964-.752 1.283-1.291.318-.54.477-1.136.477-1.789 0-.658-.16-1.259-.477-1.801-.319-.542-.746-.974-1.283-1.295-.537-.321-1.137-.482-1.801-.482-.653 0-1.25.161-1.789.482-.54.32-.968.753-1.287 1.295-.318.542-.477 1.143-.477 1.801 0 .653.16 1.25.477 1.789.319.54.747.97 1.287 1.29.202.121.413.219.63.294l.071.023v4.921c0 .393.038.771.112 1.134.075.362.17.684.283.967.113.282.232.507.357.676.124.169.236.253.336.253zM9.045 9.694c-.32 0-.603-.121-.846-.365-.244-.243-.366-.528-.366-.855 0-.332.122-.617.366-.855.243-.238.525-.357.846-.357.338 0 .626.12.864.357.238.238.357.523.357.855 0 .327-.12.612-.357.855-.238.244-.526.365-.864.365zm.988 14.809c1.417 0 2.7-.104 3.852-.311 1.15-.208 2.137-.504 2.959-.889.822-.384 1.454-.837 1.897-1.357.442-.52.664-1.09.664-1.71 0-.553-.179-1.065-.536-1.535-.357-.47-.85-.886-1.477-1.245-.628-.36-1.35-.658-2.167-.893-.816-.235-1.686-.394-2.61-.477v2.067c.597.055 1.163.144 1.697.265.534.122 1.01.27 1.428.445.418.174.746.372.984.593.238.221.357.462.357.722 0 .448-.302.84-.905 1.175-.603.335-1.435.595-2.495.78-1.06.185-2.275.278-3.648.278-1.367 0-2.581-.093-3.644-.278-1.062-.185-1.895-.445-2.498-.78-.604-.335-.905-.727-.905-1.175 0-.26.12-.5.36-.722.242-.221.568-.42.98-.593.413-.175.889-.323 1.428-.445.54-.121 1.106-.21 1.698-.265v-2.067c-.924.083-1.795.242-2.61.477-.817.235-1.54.533-2.167.893-.629.36-1.121.774-1.478 1.245-.357.47-.535.982-.535 1.535 0 .62.221 1.19.664 1.71.442.52 1.075.973 1.896 1.357.822.385 1.809.681 2.96.889 1.15.207 2.435.31 3.851.31z" transform="translate(-19 -240) translate(0 160) translate(0 60) translate(19 15)"/>
                    </g>
                </g>
            </g>
        </g>
    </g>
</svg>
