<svg width="16" height="16" viewBox="4 4 24 24" fill="none" xmlns="http://www.w3.org/2000/svg">
  <path
    fill="currentColor"
    d="M28 17.2938C27.942 17.6295 27.8892 17.9667 27.8246 18.3013C26.8838 23.1378 23.0451 26.9194 18.1828 27.8015C12.0814 28.9087 6.16904 25.2871 4.43617 19.3589C4.22976 18.6521 4.14336 17.9108 4.00378 17.185C3.99874 17.1272 3.99874 17.0691 4.00378 17.0114H12.3761C12.9757 18.6661 14.1089 19.6714 15.8994 19.7115C17.7826 19.7538 18.9815 18.7404 19.6288 17H28V17.2938ZM26.6504 18.1675C26.5969 18.1634 26.561 18.1583 26.5249 18.1583C24.528 18.1583 22.5311 18.1571 20.5342 18.1546C20.4009 18.1546 20.3584 18.2245 20.3042 18.3179C19.3482 19.9608 17.9203 20.8551 16.0091 20.8551C14.0979 20.8551 12.6681 19.9637 11.714 18.3201C11.6402 18.1943 11.5663 18.155 11.4279 18.1553C9.46789 18.1598 7.50793 18.1607 5.54797 18.1583H5.3471C6.16387 22.6116 10.2308 26.7311 15.785 26.8388C21.4023 26.9473 25.7587 22.8889 26.6504 18.1675Z"
  />
  <path
    fill="currentColor"
    d="M28 14.7062C27.942 14.3705 27.8892 14.0333 27.8246 13.6987C26.8838 8.86217 23.0451 5.08063 18.1828 4.1985C12.0814 3.09132 6.16904 6.7129 4.43617 12.6411C4.22976 13.3479 4.14336 14.0892 4.00378 14.815C3.99874 14.8728 3.99874 14.9309 4.00378 14.9886H12.3761C12.9757 13.3339 14.1089 12.3286 15.8994 12.2885C17.7826 12.2462 18.9815 13.2596 19.6288 15H28V14.7062Z"
  />
  <path
    fill="currentColor"
    d="M15.991 19C15.3979 18.9982 14.8187 18.8207 14.3265 18.4898C13.8343 18.159 13.4512 17.6897 13.2255 17.1412C12.9999 16.5927 12.942 15.9897 13.0589 15.4083C13.1759 14.8269 13.4626 14.2932 13.8828 13.8746C14.3029 13.456 14.8377 13.1714 15.4196 13.0567C16.0015 12.9419 16.6043 13.0022 17.1519 13.23C17.6995 13.4577 18.1673 13.8426 18.4963 14.3361C18.8252 14.8296 19.0005 15.4095 19 16.0026C19 16.3972 18.9221 16.7879 18.7707 17.1523C18.6194 17.5167 18.3976 17.8477 18.118 18.1262C17.8384 18.4046 17.5066 18.6252 17.1416 18.7751C16.7766 18.9251 16.3856 19.0015 15.991 19Z"
  />
</svg>
