<svg width="16" height="20" viewBox="0 0 16 20" fill="none" xmlns="http://www.w3.org/2000/svg">
<path fill-rule="evenodd" clip-rule="evenodd" d="M8.48622 1.00605C8.21773 0.737566 7.78243 0.737566 7.51394 1.00605C7.24546 1.27454 7.24546 1.70984 7.51394 1.97832L9.60189 4.06627C9.17536 4.03721 8.63097 4.02031 7.9375 4.02031C6.44178 4.02031 4.97965 4.46384 3.736 5.29482C2.49235 6.1258 1.52305 7.3069 0.950661 8.68877C0.378273 10.0706 0.22851 11.5912 0.520311 13.0582C0.812112 14.5252 1.53237 15.8727 2.59 16.9303C3.64764 17.9879 4.99515 18.7082 6.46213 19C7.92911 19.2918 9.44968 19.142 10.8315 18.5697C12.2134 17.9973 13.3945 17.028 14.2255 15.7843C15.0565 14.5407 15.5 13.0785 15.5 11.5828C15.5 11.2031 15.1922 10.8953 14.8125 10.8953C14.4328 10.8953 14.125 11.2031 14.125 11.5828C14.125 12.8066 13.7621 14.0029 13.0822 15.0204C12.4023 16.0379 11.436 16.831 10.3054 17.2993C9.17474 17.7676 7.93064 17.8902 6.73038 17.6514C5.53012 17.4127 4.42761 16.8234 3.56228 15.958C2.69694 15.0927 2.10764 13.9902 1.86889 12.7899C1.63014 11.5897 1.75268 10.3456 2.221 9.21496C2.68931 8.08434 3.48238 7.11798 4.49991 6.43809C5.51744 5.7582 6.71373 5.39531 7.9375 5.39531C8.87486 5.39531 9.49308 5.42731 9.89313 5.47169L9.92024 5.47475L7.51394 7.88105C7.24546 8.14954 7.24546 8.58484 7.51394 8.85332C7.78243 9.12181 8.21773 9.12181 8.48622 8.85332L11.9237 5.41582C12.1922 5.14734 12.1922 4.71204 11.9237 4.44355L8.48622 1.00605ZM10.9922 5.83973C10.6516 6.00752 10.2386 5.86786 10.0708 5.52724C10.065 5.51555 10.0596 5.50378 10.0546 5.49193C10.0143 5.48622 9.96963 5.48045 9.92024 5.47475L10.4653 4.92969L9.60189 4.06627C9.76645 4.07749 9.91346 4.09051 10.0447 4.10507C10.4806 4.15342 10.8437 4.227 11.0923 4.37752C11.2264 4.45866 11.4402 4.63186 11.4952 4.93915C11.5504 5.24737 11.4072 5.4744 11.3278 5.57325C11.245 5.67646 11.1531 5.7423 11.1057 5.77379C11.0779 5.79225 11.0533 5.80683 11.0344 5.8174C11.0248 5.82277 11.0163 5.82735 11.0091 5.83111L10.9992 5.8362L10.995 5.83832L10.9931 5.83928L10.9922 5.83973ZM10.9922 5.83973L10.6888 5.22605C10.9913 5.84017 10.9922 5.83973 10.9922 5.83973Z" fill="currentColor"/>
<path d="M11.0923 4.37752C10.8437 4.227 10.4806 4.15342 10.0447 4.10507C9.91346 4.09051 9.76645 4.07749 9.60189 4.06627L10.4653 4.92969L9.92024 5.47475C9.96963 5.48045 10.0143 5.48622 10.0546 5.49193C10.0596 5.50378 10.065 5.51555 10.0708 5.52724C10.2386 5.86786 10.6516 6.00752 10.9922 5.83973C10.9922 5.83973 10.9913 5.84017 10.6888 5.22605L10.9922 5.83973L10.9931 5.83928L10.995 5.83832L10.9992 5.8362L11.0091 5.83111C11.0163 5.82735 11.0248 5.82277 11.0344 5.8174C11.0533 5.80683 11.0779 5.79225 11.1057 5.77379C11.1531 5.7423 11.245 5.67646 11.3278 5.57325C11.4072 5.4744 11.5504 5.24737 11.4952 4.93915C11.4402 4.63186 11.2264 4.45866 11.0923 4.37752Z" fill="currentColor"/>
<path d="M3.736 5.29482L3.59711 5.08695L3.736 5.29482ZM10.0447 4.10507L10.0723 3.85659L10.0447 4.10507ZM11.0923 4.37752L10.9629 4.59137L10.9629 4.59137L11.0923 4.37752ZM11.4952 4.93915L11.2491 4.9832V4.9832L11.4952 4.93915ZM11.3278 5.57325L11.5228 5.72976L11.5228 5.72976L11.3278 5.57325ZM11.1057 5.77379L10.9673 5.5656L10.9673 5.5656L11.1057 5.77379ZM11.0344 5.8174L11.1566 6.03549L11.1566 6.03549L11.0344 5.8174ZM11.0091 5.83111L11.125 6.05263L11.125 6.05262L11.0091 5.83111ZM10.9992 5.8362L11.1116 6.05951L11.1123 6.05916L10.9992 5.8362ZM10.995 5.83832L11.1065 6.06211L11.1074 6.06163L10.995 5.83832ZM10.9931 5.83928L11.1041 6.0633L11.1046 6.06306L10.9931 5.83928ZM10.9922 5.83973L11.1028 6.06391L11.1032 6.06376L10.9922 5.83973ZM10.6888 5.22605L10.9129 5.11526L10.4645 5.33653L10.6888 5.22605ZM10.0708 5.52724L9.8465 5.63771L9.8465 5.63772L10.0708 5.52724ZM10.0546 5.49193L10.2846 5.3941L10.2294 5.2642L10.0896 5.2444L10.0546 5.49193ZM9.89313 5.47169L9.92069 5.22321L9.89313 5.47169ZM4.49991 6.43809L4.6388 6.64596L4.49991 6.43809ZM2.221 9.21496L2.45196 9.31063L2.221 9.21496ZM1.86889 12.7899L2.11409 12.7412L1.86889 12.7899ZM3.56228 15.958L3.3855 16.1348L3.56228 15.958ZM6.73038 17.6514L6.68161 17.8966H6.68161L6.73038 17.6514ZM10.3054 17.2993L10.401 17.5303L10.3054 17.2993ZM13.0822 15.0204L12.8743 14.8815V14.8815L13.0822 15.0204ZM15.5 11.5828H15.75H15.5ZM10.8315 18.5697L10.9272 18.8006L10.8315 18.5697ZM6.46213 19L6.5109 18.7548H6.5109L6.46213 19ZM0.520311 13.0582L0.275115 13.107L0.520311 13.0582ZM0.950661 8.68877L0.719691 8.5931L0.950661 8.68877ZM8.48622 1.00605L8.30944 1.18283V1.18283L8.48622 1.00605ZM7.51394 1.00605L7.69072 1.18283V1.18283L7.51394 1.00605ZM11.9237 4.44355L12.1005 4.26677L11.9237 4.44355ZM11.9237 5.41582L12.1005 5.5926V5.5926L11.9237 5.41582ZM8.48622 8.85332L8.66299 9.0301L8.48622 8.85332ZM7.51394 8.85332L7.69072 8.67655H7.69072L7.51394 8.85332ZM7.51394 7.88105L7.69072 8.05783H7.69072L7.51394 7.88105ZM10.4653 4.92969L10.6421 5.10646C10.689 5.05958 10.7153 4.99599 10.7153 4.92969C10.7153 4.86338 10.689 4.79979 10.6421 4.75291L10.4653 4.92969ZM7.51394 1.97832L7.33717 2.1551L7.51394 1.97832ZM7.9375 3.77031C6.39233 3.77031 4.88187 4.22851 3.59711 5.08695L3.87489 5.50269C5.07743 4.69918 6.49122 4.27031 7.9375 4.27031V3.77031ZM11.2218 4.16366C10.9218 3.98202 10.509 3.90504 10.0723 3.85659L10.0172 4.35354C10.4523 4.40181 10.7657 4.47198 10.9629 4.59137L11.2218 4.16366ZM11.7413 4.8951C11.6681 4.4861 11.3839 4.26181 11.2218 4.16366L10.9629 4.59137C11.0688 4.6555 11.2123 4.77762 11.2491 4.9832L11.7413 4.8951ZM11.5228 5.72976C11.623 5.605 11.8148 5.30545 11.7413 4.8951L11.2491 4.9832C11.286 5.18929 11.1915 5.3438 11.1329 5.41675L11.5228 5.72976ZM11.2441 5.98197C11.3012 5.94403 11.417 5.86159 11.5228 5.72976L11.1329 5.41675C11.073 5.49132 11.0049 5.54057 10.9673 5.5656L11.2441 5.98197ZM11.1566 6.03549C11.1799 6.02245 11.2101 6.00459 11.2441 5.98197L10.9673 5.5656C10.9458 5.57992 10.9266 5.59121 10.9122 5.59931L11.1566 6.03549ZM11.125 6.05262C11.1341 6.04786 11.1448 6.04214 11.1566 6.03549L10.9122 5.59931C10.9049 5.60341 10.8985 5.60685 10.8932 5.6096L11.125 6.05262ZM11.1123 6.05916C11.1162 6.05719 11.1205 6.05501 11.125 6.05263L10.8932 5.6096C10.8906 5.61099 10.8882 5.61221 10.8861 5.61324L11.1123 6.05916ZM11.1074 6.06163L11.1116 6.0595L10.8868 5.6129L10.8826 5.61502L11.1074 6.06163ZM11.1046 6.06306L11.1065 6.06211L10.8836 5.61454L10.8817 5.61549L11.1046 6.06306ZM11.1032 6.06376L11.1041 6.0633L10.8821 5.61525L10.8812 5.61571L11.1032 6.06376ZM10.4645 5.33653C10.6158 5.64363 10.6918 5.79731 10.73 5.8743C10.7491 5.91273 10.7589 5.93239 10.764 5.9426C10.7665 5.94757 10.7683 5.951 10.7696 5.9535C10.7701 5.95447 10.7713 5.95684 10.7728 5.95959C10.7732 5.96042 10.7755 5.96453 10.7786 5.9696C10.7795 5.97112 10.7842 5.97894 10.7911 5.98829C10.7934 5.99141 10.8035 6.0052 10.8192 6.02025C10.8259 6.02665 10.8458 6.04528 10.8763 6.06127C10.8992 6.07177 10.9399 6.08419 10.9571 6.08725C11.0317 6.08659 11.1028 6.06391 10.9922 5.83973C10.8815 5.61556 10.9527 5.59288 11.0273 5.59221C11.0445 5.59527 11.0852 5.60769 11.108 5.61819C11.1386 5.63419 11.1585 5.65281 11.1651 5.65921C11.1809 5.67426 11.191 5.68805 11.1933 5.69117C11.2002 5.70051 11.2049 5.70833 11.2058 5.70983C11.2088 5.71486 11.211 5.7189 11.2114 5.71958C11.2122 5.72103 11.2128 5.72213 11.213 5.72259C11.2133 5.72314 11.2135 5.7235 11.2136 5.7236C11.2136 5.72373 11.2129 5.72239 11.2106 5.7178C11.2062 5.70891 11.1969 5.6903 11.1779 5.65207C11.14 5.57574 11.0643 5.42259 10.9131 5.11558L10.4645 5.33653ZM11.2163 5.72893L10.9129 5.11526L10.4647 5.33685L10.7681 5.95053L11.2163 5.72893ZM9.8465 5.63772C10.0755 6.10261 10.6386 6.29259 11.1027 6.064L10.8817 5.61547C10.6645 5.72245 10.4016 5.6331 10.295 5.41677L9.8465 5.63772ZM9.82451 5.58976C9.83137 5.60588 9.8387 5.62187 9.8465 5.63771L10.295 5.41677C10.2913 5.40923 10.2879 5.40167 10.2846 5.3941L9.82451 5.58976ZM7.9375 5.64531C8.87056 5.64531 9.47852 5.67723 9.86557 5.72016L9.92069 5.22321C9.50765 5.17739 8.87915 5.14531 7.9375 5.14531V5.64531ZM4.6388 6.64596C5.61522 5.99354 6.76317 5.64531 7.9375 5.64531V5.14531C6.66428 5.14531 5.41966 5.52286 4.36102 6.23023L4.6388 6.64596ZM2.45196 9.31063C2.90136 8.22569 3.66238 7.29838 4.6388 6.64596L4.36102 6.23023C3.30237 6.93759 2.47726 7.94299 1.99003 9.11929L2.45196 9.31063ZM2.11409 12.7412C1.88499 11.5894 2.00257 10.3956 2.45196 9.31063L1.99003 9.11929C1.50279 10.2956 1.3753 11.59 1.62369 12.8387L2.11409 12.7412ZM3.73905 15.7813C2.90868 14.9509 2.34319 13.8929 2.11409 12.7412L1.62369 12.8387C1.87209 14.0875 2.4852 15.2345 3.3855 16.1348L3.73905 15.7813ZM6.77915 17.4062C5.62739 17.1771 4.56943 16.6116 3.73905 15.7813L3.3855 16.1348C4.2858 17.0351 5.43285 17.6482 6.68161 17.8966L6.77915 17.4062ZM10.2097 17.0683C9.12475 17.5177 7.93091 17.6353 6.77915 17.4062L6.68161 17.8966C7.93036 18.145 9.22472 18.0175 10.401 17.5303L10.2097 17.0683ZM12.8743 14.8815C12.2219 15.8579 11.2946 16.619 10.2097 17.0683L10.401 17.5303C11.5773 17.043 12.5827 16.2179 13.2901 15.1593L12.8743 14.8815ZM13.875 11.5828C13.875 12.7571 13.5268 13.9051 12.8743 14.8815L13.2901 15.1593C13.9974 14.1007 14.375 12.856 14.375 11.5828H13.875ZM14.8125 10.6453C14.2947 10.6453 13.875 11.065 13.875 11.5828H14.375C14.375 11.3412 14.5709 11.1453 14.8125 11.1453V10.6453ZM15.75 11.5828C15.75 11.065 15.3303 10.6453 14.8125 10.6453V11.1453C15.0541 11.1453 15.25 11.3412 15.25 11.5828H15.75ZM14.4334 15.9232C15.2918 14.6384 15.75 13.128 15.75 11.5828H15.25C15.25 13.0291 14.8211 14.4429 14.0176 15.6454L14.4334 15.9232ZM10.9272 18.8006C12.3548 18.2093 13.5749 17.208 14.4334 15.9232L14.0176 15.6454C13.2141 16.848 12.0721 17.7852 10.7359 18.3387L10.9272 18.8006ZM6.41336 19.2452C7.92883 19.5466 9.49967 19.3919 10.9272 18.8006L10.7359 18.3387C9.39969 18.8921 7.92939 19.037 6.5109 18.7548L6.41336 19.2452ZM2.41323 17.1071C3.50583 18.1997 4.89788 18.9437 6.41336 19.2452L6.5109 18.7548C5.09242 18.4726 3.78945 17.7762 2.76678 16.7535L2.41323 17.1071ZM0.275115 13.107C0.576562 14.6224 1.32063 16.0145 2.41323 17.1071L2.76678 16.7535C1.74411 15.7309 1.04766 14.4279 0.765507 13.0094L0.275115 13.107ZM0.719691 8.5931C0.128381 10.0206 -0.0263325 11.5915 0.275115 13.107L0.765507 13.0094C0.483353 11.5909 0.628165 10.1206 1.18163 8.78444L0.719691 8.5931ZM3.59711 5.08695C2.31235 5.9454 1.311 7.16555 0.719691 8.5931L1.18163 8.78444C1.7351 7.44825 2.67236 6.3062 3.87489 5.50269L3.59711 5.08695ZM8.66299 0.829275C8.29688 0.463158 7.70328 0.463158 7.33717 0.829275L7.69072 1.18283C7.86157 1.01197 8.13858 1.01197 8.30944 1.18283L8.66299 0.829275ZM12.1005 4.26677L8.66299 0.829275L8.30944 1.18283L11.7469 4.62033L12.1005 4.26677ZM12.1005 5.5926C12.4666 5.22648 12.4666 4.63289 12.1005 4.26677L11.7469 4.62033C11.9178 4.79118 11.9178 5.06819 11.7469 5.23905L12.1005 5.5926ZM8.66299 9.0301L12.1005 5.5926L11.7469 5.23905L8.30944 8.67655L8.66299 9.0301ZM7.33717 9.0301C7.70328 9.39622 8.29688 9.39622 8.66299 9.0301L8.30944 8.67655C8.13858 8.8474 7.86157 8.8474 7.69072 8.67655L7.33717 9.0301ZM7.33717 7.70427C6.97105 8.07039 6.97105 8.66398 7.33717 9.0301L7.69072 8.67655C7.51987 8.50569 7.51987 8.22868 7.69072 8.05783L7.33717 7.70427ZM7.33717 0.829275C6.97105 1.19539 6.97105 1.78898 7.33717 2.1551L7.69072 1.80155C7.51987 1.63069 7.51987 1.35368 7.69072 1.18283L7.33717 0.829275ZM7.33717 2.1551L9.42512 4.24305L9.77867 3.8895L7.69072 1.80155L7.33717 2.1551ZM9.61889 3.81685C9.185 3.78729 8.63463 3.77031 7.9375 3.77031V4.27031C8.62731 4.27031 9.16572 4.28713 9.5849 4.31569L9.61889 3.81685ZM9.86503 5.7201L9.89214 5.72317L9.94835 5.22634L9.92124 5.22327L9.86503 5.7201ZM9.74346 5.29798L7.33717 7.70427L7.69072 8.05783L10.097 5.65153L9.74346 5.29798ZM10.0896 5.2444C10.0471 5.23838 10.0003 5.23234 9.9489 5.2264L9.89158 5.72311C9.93893 5.72857 9.98145 5.73407 10.0195 5.73946L10.0896 5.2444ZM10.097 5.65153L10.6421 5.10646L10.2885 4.75291L9.74346 5.29798L10.097 5.65153ZM10.6421 4.75291L9.77867 3.8895L9.42512 4.24305L10.2885 5.10646L10.6421 4.75291ZM9.5849 4.31569C9.74649 4.3267 9.88993 4.33943 10.0172 4.35354L10.0723 3.85659C9.93699 3.84158 9.78641 3.82827 9.61889 3.81685L9.5849 4.31569ZM10.8946 5.60889L10.8847 5.61398L11.1138 6.05842L11.1236 6.05333L10.8946 5.60889ZM9.86557 5.72016C9.8744 5.72114 9.88307 5.72212 9.89158 5.72311L9.9489 5.2264C9.93964 5.22533 9.93024 5.22427 9.92069 5.22321L9.86557 5.72016Z" fill="currentColor"/>
</svg>
