<svg width="14" height="18" viewBox="0 0 14 18" fill="none" xmlns="http://www.w3.org/2000/svg">
<path d="M10 6.19238H11.5C11.8978 6.19238 12.2794 6.34434 12.5607 6.61482C12.842 6.88531 13 7.25217 13 7.63469V14.5578C13 14.9403 12.842 15.3071 12.5607 15.5776C12.2794 15.8481 11.8978 16.0001 11.5 16.0001H2.5C2.10218 16.0001 1.72064 15.8481 1.43934 15.5776C1.15804 15.3071 1 14.9403 1 14.5578V7.63469C1 7.25217 1.15804 6.88531 1.43934 6.61482C1.72064 6.34434 2.10218 6.19238 2.5 6.19238H4" stroke="#96A4B5" stroke-width="1.4" stroke-linecap="round" stroke-linejoin="round"/>
<path d="M9.99976 3.88462L6.99976 1L3.99976 3.88462" stroke="#96A4B5" stroke-width="1.4" stroke-linecap="round" stroke-linejoin="round"/>
<path d="M6.99988 10.8438V1" stroke="#96A4B5" stroke-width="1.4" stroke-linecap="round" stroke-linejoin="round"/>
</svg>
