<svg width="20" height="20" viewBox="0 0 20 20" fill="none" xmlns="http://www.w3.org/2000/svg">
<path fill-rule="evenodd" clip-rule="evenodd" d="M9.96094 19.9219C15.4102 19.9219 19.9219 15.4004 19.9219 9.96094C19.9219 4.51172 15.4004 0 9.95117 0C4.51172 0 0 4.51172 0 9.96094C0 15.4004 4.52148 19.9219 9.96094 19.9219ZM16.1523 15.5176C15.166 14.3457 12.9004 13.291 9.96094 13.291C7.03125 13.291 4.76562 14.3359 3.7793 15.5078C2.46094 14.043 1.66992 12.0996 1.66992 9.96094C1.66992 5.35156 5.3418 1.66016 9.95117 1.66016C14.5605 1.66016 18.252 5.35156 18.2617 9.96094C18.2715 12.0996 17.4707 14.043 16.1523 15.5176ZM13.3105 7.94922C13.3105 10.0488 11.8359 11.6504 9.96094 11.6309C8.08594 11.6113 6.62109 10.0488 6.61133 7.94922C6.60156 5.97656 8.08594 4.33594 9.96094 4.33594C11.8359 4.33594 13.3105 5.97656 13.3105 7.94922Z" fill="currentColor"/>
</svg>
