<svg width="21" height="21" viewBox="0 0 21 21" fill="none" xmlns="http://www.w3.org/2000/svg">
<path fill-rule="evenodd" clip-rule="evenodd" d="M10.8613 20.9102C16.3105 20.9102 20.8223 16.3887 20.8223 10.9492C20.8223 5.5 16.3008 0.988281 10.8516 0.988281C5.41211 0.988281 0.900391 5.5 0.900391 10.9492C0.900391 16.3887 5.42188 20.9102 10.8613 20.9102ZM10.8418 12.6191C8.9668 12.5996 7.49219 11.0371 7.49219 8.9375C7.48242 6.96484 8.97656 5.32422 10.8418 5.32422C12.7168 5.32422 14.1914 6.96484 14.1914 8.9375C14.1914 11.0371 12.7266 12.6387 10.8418 12.6191ZM4.8457 16.916C6.33984 18.5078 8.60547 19.4258 10.8418 19.4258C13.0879 19.4258 15.3438 18.5078 16.8477 16.916C15.7832 15.2363 13.4688 14.2793 10.8418 14.2793C8.19531 14.2793 5.90039 15.2559 4.8457 16.916Z" fill="currentColor"/>
</svg>
