<svg width="17" height="17" viewBox="0 0 17 17" fill="none" xmlns="http://www.w3.org/2000/svg">
<path id="&#244;&#128;&#156;&#152;" fill-rule="evenodd" clip-rule="evenodd" d="M10.1953 7.10938C10.763 7.10938 11.2773 6.95964 11.7383 6.66016C12.1992 6.36068 12.5664 5.95964 12.8398 5.45703C13.1133 4.95443 13.25 4.39323 13.25 3.77344C13.25 3.17969 13.112 2.63411 12.8359 2.13672C12.5599 1.63932 12.1914 1.24219 11.7305 0.945312C11.2695 0.648438 10.7578 0.5 10.1953 0.5C9.63802 0.5 9.1276 0.64974 8.66406 0.949219C8.20052 1.2487 7.83073 1.64583 7.55469 2.14062C7.27865 2.63542 7.14062 3.17969 7.14062 3.77344C7.14583 4.39323 7.28516 4.95443 7.55859 5.45703C7.83203 5.95964 8.19792 6.36068 8.65625 6.66016C9.11458 6.95964 9.6276 7.10938 10.1953 7.10938ZM14.7031 14.0703C15.3854 14.0703 15.8568 13.9596 16.1172 13.7383C16.3776 13.5169 16.5078 13.2161 16.5078 12.8359C16.5078 12.362 16.3594 11.8672 16.0625 11.3516C15.7656 10.8359 15.3411 10.3529 14.7891 9.90234C14.237 9.45182 13.5729 9.08594 12.7969 8.80469C12.0208 8.52344 11.1536 8.38281 10.1953 8.38281C9.65885 8.38281 9.15104 8.43099 8.67188 8.52734C8.19271 8.6237 7.7474 8.75781 7.33594 8.92969C7.85677 9.39844 8.27214 9.95833 8.58203 10.6094C8.89193 11.2604 9.04688 11.9583 9.04688 12.7031C9.04688 13.1823 8.97917 13.638 8.84375 14.0703H14.7031ZM7.89 12.9469C7.89 15.1129 6.1129 16.89 3.94694 16.89C1.7771 16.89 0 15.1129 0 12.9469C0 10.7771 1.7771 9 3.94306 9C6.1129 9 7.89 10.7771 7.89 12.9469ZM1.8782 13.1803C1.8782 13.4058 2.05319 13.5808 2.27873 13.5808H3.94306C4.1686 13.5808 4.34358 13.4058 4.34358 13.1803V10.9793C4.34358 10.7577 4.1686 10.5827 3.94306 10.5827C3.7214 10.5827 3.54642 10.7577 3.54642 10.9793V12.7836H2.27873C2.05319 12.7836 1.8782 12.9586 1.8782 13.1803Z" fill="#2F496D"/>
</svg>
