<svg xmlns="http://www.w3.org/2000/svg" width="20" height="20" viewBox="0 0 20 20">
    <path fill="currentColor" fill-rule="nonzero" d="M16.77 7.69l.224-1.25a.375.375 0 0 0-.37-.44h-2.337l.457-2.56a.375.375 0 0 0-.37-.44h-1.269a.389.389 0 0 0-.369.31L12.256 6H9.172l.457-2.56A.375.375 0 0 0 9.26 3H7.992a.389.389 0 0 0-.369.31L7.142 6H4.67a.389.389 0 0 0-.37.31l-.223 1.25c-.04.229.136.44.37.44h2.337l-.714 4H3.598a.389.389 0 0 0-.369.31l-.223 1.25c-.041.229.136.44.37.44h2.337l-.457 2.559c-.041.23.136.441.37.441h1.269a.389.389 0 0 0 .369-.31l.48-2.69h3.083l-.457 2.559c-.041.23.136.441.37.441h1.269a.389.389 0 0 0 .369-.31l.48-2.69h2.472a.389.389 0 0 0 .37-.31l.223-1.25a.375.375 0 0 0-.37-.44h-2.337l.714-4h2.472a.389.389 0 0 0 .369-.31zM11.185 12H8.102l.714-4h3.082l-.714 4z" />
</svg>
