<svg width="28" height="28" viewBox="0 0 28 28" fill="none" xmlns="http://www.w3.org/2000/svg">
<path d="M17.6406 24.3203C17.9167 24.3203 18.1562 24.2292 18.3594 24.0469C18.5625 23.8646 18.6641 23.6276 18.6641 23.3359C18.6641 23.2422 18.651 23.1432 18.625 23.0391C18.599 22.9401 18.5573 22.8359 18.5 22.7266L16.6484 18.9766C16.5495 18.7839 16.4557 18.6198 16.3672 18.4844C16.2839 18.3438 16.2005 18.2188 16.1172 18.1094L15.1016 16.6484L15.1484 16.4922C15.2995 15.987 15.4062 15.5573 15.4688 15.2031C15.5365 14.8438 15.5859 14.4401 15.6172 13.9922L15.7969 11.5312C15.8281 11.0885 15.7682 10.6875 15.6172 10.3281C15.4714 9.96354 15.237 9.67188 14.9141 9.45312C14.5911 9.23438 14.1901 9.125 13.7109 9.125C13.2318 9.125 12.7708 9.24479 12.3281 9.48438C11.8906 9.72396 11.4427 10.0729 10.9844 10.5312L9.61719 11.8828C9.38802 12.1172 9.22656 12.3385 9.13281 12.5469C9.04427 12.7552 8.98698 13.0052 8.96094 13.2969L8.78906 15.3438C8.76302 15.6458 8.82812 15.8906 8.98438 16.0781C9.14583 16.2604 9.36198 16.362 9.63281 16.3828C9.90365 16.4036 10.1302 16.3359 10.3125 16.1797C10.4948 16.0234 10.6016 15.7839 10.6328 15.4609L10.8125 13.25L11.6094 12.5547C11.6875 12.4818 11.7682 12.4635 11.8516 12.5C11.9349 12.5312 11.9714 12.6042 11.9609 12.7188L11.8125 14.7344C11.776 15.2344 11.8542 15.6745 12.0469 16.0547C12.2448 16.4297 12.4688 16.7734 12.7188 17.0859L14.5 19.3203C14.5781 19.4193 14.6328 19.4974 14.6641 19.5547C14.6953 19.612 14.7344 19.6823 14.7812 19.7656L16.7031 23.6797C16.8125 23.9036 16.9479 24.0651 17.1094 24.1641C17.276 24.2682 17.4531 24.3203 17.6406 24.3203ZM9.49219 24.3203C9.79948 24.3203 10.0729 24.1797 10.3125 23.8984L13.0156 20.6797C13.1615 20.5078 13.2578 20.3724 13.3047 20.2734C13.3568 20.1797 13.4089 20.0547 13.4609 19.8984C13.4818 19.8307 13.5026 19.763 13.5234 19.6953C13.5443 19.6224 13.5599 19.5547 13.5703 19.4922L11.9141 17.4297L11.4844 19.4062L8.82812 22.5312C8.71875 22.6615 8.63542 22.7917 8.57812 22.9219C8.52083 23.0521 8.49219 23.1849 8.49219 23.3203C8.49219 23.5964 8.59115 23.8307 8.78906 24.0234C8.98698 24.2214 9.22135 24.3203 9.49219 24.3203ZM18.1406 14.5H20.2969C20.6094 14.5 20.8516 14.4141 21.0234 14.2422C21.1953 14.0703 21.2812 13.8516 21.2812 13.5859C21.2865 13.3099 21.2005 13.0859 21.0234 12.9141C20.8464 12.737 20.599 12.6484 20.2812 12.6484H18.0859L16.6016 11.0938L16.4297 13.5L17.0391 14.1172C17.1953 14.2682 17.3542 14.3698 17.5156 14.4219C17.6771 14.474 17.8854 14.5 18.1406 14.5ZM14.8438 8.39062C15.2188 8.39062 15.5573 8.29948 15.8594 8.11719C16.1667 7.9349 16.4089 7.69271 16.5859 7.39062C16.7682 7.08854 16.8594 6.76042 16.8594 6.40625C16.8594 6.03646 16.7682 5.70052 16.5859 5.39844C16.4089 5.09115 16.1667 4.84896 15.8594 4.67188C15.5573 4.48958 15.2188 4.39844 14.8438 4.39844C14.474 4.39844 14.138 4.48958 13.8359 4.67188C13.5391 4.84896 13.3021 5.09115 13.125 5.39844C12.9479 5.70052 12.8594 6.03646 12.8594 6.40625C12.8594 6.76042 12.9479 7.08854 13.125 7.39062C13.3021 7.69271 13.5391 7.9349 13.8359 8.11719C14.138 8.29948 14.474 8.39062 14.8438 8.39062Z" fill="white"/>
</svg>
