<svg width="10" height="12" viewBox="0 0 10 12" fill="none" xmlns="http://www.w3.org/2000/svg">
<path d="M9.08464 10.9585C9.29535 10.9032 9.48049 10.7979 9.64006 10.6424C9.79963 10.4828 9.90601 10.2967 9.9592 10.0839C10.0124 9.87115 10.0134 9.66044 9.96227 9.45177C9.91113 9.2431 9.81191 9.06307 9.66461 8.91168L6.75386 6.00206L9.66461 3.09351C9.81191 2.93803 9.91113 2.75596 9.96227 2.54729C10.0134 2.33862 10.0124 2.12791 9.9592 1.91515C9.90601 1.70239 9.79963 1.51622 9.64006 1.35665C9.48049 1.20117 9.29535 1.09581 9.08464 1.04058C8.87392 0.985343 8.66321 0.983297 8.45249 1.03444C8.24178 1.08559 8.05868 1.18685 7.9032 1.33824L4.99809 4.24629L2.08503 1.3321C1.93773 1.1889 1.75975 1.09172 1.55108 1.04058C1.34242 0.989435 1.12966 0.989435 0.912803 1.04058C0.695952 1.09172 0.509786 1.19503 0.354308 1.35051C0.194738 1.51008 0.0893804 1.69727 0.0382361 1.91208C-0.0129081 2.12688 -0.0129081 2.33964 0.0382361 2.55036C0.0893804 2.76107 0.186555 2.94008 0.329759 3.08737L3.2439 6.00206L0.329759 8.91782C0.186555 9.06102 0.0893804 9.23798 0.0382361 9.4487C-0.0129081 9.65941 -0.0129081 9.8732 0.0382361 10.09C0.0893804 10.3069 0.194738 10.4931 0.354308 10.6485C0.509786 10.804 0.695952 10.9084 0.912803 10.9615C1.12966 11.0147 1.34242 11.0147 1.55108 10.9615C1.75975 10.9084 1.93773 10.8102 2.08503 10.667L4.99809 7.75625L7.9032 10.6608C8.05868 10.8163 8.24178 10.9186 8.45249 10.9677C8.66321 11.0168 8.87392 11.0137 9.08464 10.9585Z" fill="white"/>
</svg>
