<svg width="22" height="22" viewBox="0 0 22 22" fill="none" xmlns="http://www.w3.org/2000/svg">
<path d="M1 9.34668C1 10.502 1.21533 11.5854 1.646 12.5972C2.0835 13.6021 2.68506 14.4873 3.45068 15.2529C4.21631 16.0186 5.10156 16.6167 6.10645 17.0474C7.11816 17.478 8.19824 17.6934 9.34668 17.6934C10.2012 17.6934 11.0146 17.5703 11.7871 17.3242C12.5664 17.0713 13.2842 16.7261 13.9404 16.2886L18.647 20.9951C18.7974 21.1455 18.9648 21.2549 19.1494 21.3232C19.3408 21.3984 19.5391 21.436 19.7441 21.436C20.0381 21.436 20.2979 21.3677 20.5234 21.231C20.749 21.1011 20.9268 20.9199 21.0566 20.6875C21.1865 20.4551 21.2515 20.1953 21.2515 19.9082C21.2515 19.7031 21.2139 19.5083 21.1387 19.3237C21.0703 19.1392 20.9644 18.9785 20.8208 18.8418L16.145 14.1455C16.6304 13.4756 17.0098 12.7339 17.2832 11.9204C17.5635 11.1069 17.7036 10.249 17.7036 9.34668C17.7036 8.19824 17.4849 7.12158 17.0474 6.1167C16.6167 5.10498 16.0186 4.21631 15.2529 3.45068C14.4873 2.67822 13.5986 2.07666 12.5869 1.646C11.582 1.21533 10.502 1 9.34668 1C8.19824 1 7.11816 1.21533 6.10645 1.646C5.10156 2.07666 4.21631 2.67822 3.45068 3.45068C2.68506 4.21631 2.0835 5.10498 1.646 6.1167C1.21533 7.12158 1 8.19824 1 9.34668ZM3.18408 9.34668C3.18408 8.49902 3.34131 7.70264 3.65576 6.95752C3.97705 6.2124 4.42139 5.55615 4.98877 4.98877C5.55615 4.42139 6.2124 3.98047 6.95752 3.66602C7.70264 3.34473 8.49902 3.18408 9.34668 3.18408C10.2012 3.18408 11.001 3.34473 11.7461 3.66602C12.4912 3.98047 13.144 4.42139 13.7046 4.98877C14.272 5.55615 14.7163 6.2124 15.0376 6.95752C15.3589 7.70264 15.5195 8.49902 15.5195 9.34668C15.5195 10.2012 15.3589 11.001 15.0376 11.7461C14.7163 12.4912 14.272 13.1475 13.7046 13.7148C13.144 14.2754 12.4912 14.7163 11.7461 15.0376C11.001 15.3589 10.2012 15.5195 9.34668 15.5195C8.49902 15.5195 7.70264 15.3589 6.95752 15.0376C6.2124 14.7163 5.55615 14.2754 4.98877 13.7148C4.42139 13.1475 3.97705 12.4912 3.65576 11.7461C3.34131 11.001 3.18408 10.2012 3.18408 9.34668ZM5.90137 9.34668C5.90137 9.57227 5.97998 9.76367 6.13721 9.9209C6.29443 10.0713 6.48242 10.1465 6.70117 10.1465H8.54688V11.9819C8.54688 12.2075 8.62549 12.3989 8.78271 12.5562C8.93994 12.7134 9.12793 12.792 9.34668 12.792C9.57227 12.792 9.76367 12.7134 9.9209 12.5562C10.0781 12.3989 10.1567 12.2075 10.1567 11.9819V10.1465H11.9922C12.2178 10.1465 12.4058 10.0713 12.5562 9.9209C12.7134 9.76367 12.792 9.57227 12.792 9.34668C12.792 9.12109 12.7134 8.92969 12.5562 8.77246C12.4058 8.61523 12.2178 8.53662 11.9922 8.53662H10.1567V6.70117C10.1567 6.47559 10.0781 6.28418 9.9209 6.12695C9.76367 5.96973 9.57227 5.89111 9.34668 5.89111C9.12793 5.89111 8.93994 5.96973 8.78271 6.12695C8.62549 6.28418 8.54688 6.47559 8.54688 6.70117V8.53662H6.70117C6.48242 8.53662 6.29443 8.61523 6.13721 8.77246C5.97998 8.92969 5.90137 9.12109 5.90137 9.34668Z" fill="#2F496D"/>
</svg>
