g ribbon
v 3.385552 0.4867758 3.316079
v 1.091714 0.1953266 3.41663
v 1.579006 0.4833819 3.990872
v 2.607719 0.1587466 2.626696
v 0.7205769 0.07380066 2.959725
v 2.015919 0.04911924 2.019104
v 0.02547968 -0.06901256 1.907468
v 0.9424484 -0.1043212 0.7367211
v -0.8431854 -0.1364112 0.6607858
v 0.1240217 -0.1547614 -0.4237628
v -1.362136 -0.1236218 -0.6665304
v -0.4223648 -0.1301438 -1.304214
v -1.621533 -0.04863352 -1.623856
v -0.7717662 -0.07763787 -1.968985
v -1.631319 0.03849549 -1.919379
v -1.016043 0.03460183 -2.71441
v -1.62182 0.1286436 -2.152005
v -1.246636 0.1985739 -3.38779
v -1.383751 0.3942826 -2.610959
v -1.246636 0.1985739 -3.38779
v -1.62182 0.1286436 -2.152005
v -1.19656 0.3665734 -3.769442
v -0.8134282 0.558153 -2.851676
v -1.052392 0.4756747 -3.888256
v -0.309843 0.6322829 -3.00321
v -0.6510146 0.6677973 -4.116334
v -0.01185608 0.6361813 -3.025088
v -0.01185679 0.7373214 -4.187106
v -3.380484 0.4838128 3.316079
v -1.574955 0.4779096 3.990872
v -1.087938 0.189953 3.41663
v -2.603089 0.1520357 2.626696
v -0.7170101 0.07936008 2.959725
v -2.011622 0.05467866 2.019104
v -0.02230455 -0.01142745 1.907468
v -0.9387565 -0.042264 0.7367211
v 0.8459167 -0.06808054 0.6607858
v -0.1208369 -0.08606388 -0.4271866
v 1.364508 -0.1181739 -0.675121
v 0.4253336 -0.117619 -1.318074
v 1.623809 -0.04080478 -1.663726
v 0.7745599 -0.06989773 -2.008854
v 1.633614 0.06334732 -1.966942
v 1.018707 0.03746467 -2.728879
v 1.24917 0.2000006 -3.394024
v 1.624134 0.1744404 -2.217577
v 0.6538085 0.6669931 -4.116334
v -0.01185679 0.7373214 -4.187106
v -0.01185608 0.6361813 -3.025088
v 0.3129021 0.6287614 -3.004344
v 1.054966 0.4762336 -3.88995
v 0.8161305 0.5583043 -2.856521
v 1.199097 0.367411 -3.772613
v 1.386118 0.3594806 -2.581923
v 1.24917 0.2000006 -3.394024
v 1.624134 0.1744404 -2.217577
vt 0 0
vt 1 0.125
vt 1 0
vt 0 0.125
vt 1 0.25
vt 0 0.25
vt 1 0.375
vt 0 0.375
vt 1 0.5
vt 0 0.5
vt 1 0.5625
vt 0 0.5625
vt 1 0.625
vt 0 0.625
vt 1 0.6875
vt 0 0.6875
vt 1 0.75
vt 0 0.75
vt 1 0.8125
vt 0 0.75
vt 1 0.75
vt 0 0.8125
vt 1 0.875
vt 0 0.875
vt 1 0.9375
vt 0 0.9375
vt 1.009238 0.9895754
vt -0.002128064 1.002437
vt 0 0
vt 1 0
vt 1 0.125
vt 0 0.125
vt 1 0.25
vt 0 0.25
vt 1 0.375
vt 0 0.375
vt 1 0.5
vt 0 0.5
vt 1 0.5625
vt 0 0.5625
vt 1 0.625
vt 0 0.625
vt 1 0.6875
vt 0 0.6875
vt 0 0.75
vt 1 0.75
vt 0 0.9375
vt 0.001174637 1.003621
vt 1.012411 0.9909073
vt 1 0.9375
vt 0 0.875
vt 1 0.875
vt 0 0.8125
vt 1 0.8125
vt 0 0.75
vt 1 0.75
vn 0.1332086 -0.9368416 0.3233933
vn 0.1034468 -0.9651415 0.240418
vn 0.1332086 -0.9368416 0.3233933
vn 0.1131215 -0.9569377 0.2673458
vn 0.06002783 -0.9923825 0.1075809
vn 0.06053527 -0.9921348 0.109563
vn 0.03968211 -0.9969779 0.06678692
vn 0.03301526 -0.9977471 0.0583999
vn 0.005302466 -0.9997049 0.02370465
vn -0.001708947 -0.9998862 0.01499328
vn -0.02901809 -0.9993334 -0.02215023
vn -0.03235932 -0.9990991 -0.02745653
vn -0.07709888 -0.9933682 -0.08529574
vn -0.08253498 -0.99242 -0.09105235
vn -0.1740968 -0.9717782 -0.1591779
vn -0.2516754 -0.9521832 -0.1732243
vn -0.3154556 -0.9309063 -0.1841231
vn -0.3154556 -0.9309063 -0.1841231
vn 0.8142779 -0.556117 0.166389
vn 0.9533364 -0.2064591 0.2202827
vn 0.9533364 -0.2064591 0.2202827
vn 0.454181 -0.8889107 0.05964448
vn 0.31463 -0.9491689 -0.009300378
vn 0.3008379 -0.9534622 -0.02015683
vn 0.1627586 -0.9847834 -0.06092195
vn 0.1680815 -0.983924 -0.0603509
vn -0.001978968 -0.9974568 -0.07124548
vn -0.00227815 -0.997456 -0.07124812
vn -0.1342492 -0.9361998 0.3248183
vn -0.1342492 -0.9361998 0.3248183
vn -0.09994207 -0.9668192 0.2351005
vn -0.1111029 -0.9580311 0.2642585
vn -0.04112177 -0.9955311 0.08501042
vn -0.04210951 -0.9952801 0.08743165
vn -0.023422 -0.9985775 0.04790048
vn -0.02045124 -0.998845 0.04348002
vn -0.01422689 -0.9994086 0.03130383
vn -0.01496811 -0.9994216 0.03053405
vn 0.001691625 -0.9999909 0.003914523
vn 0.008847165 -0.999945 -0.005621678
vn 0.07784876 -0.9932767 -0.08567911
vn 0.08466387 -0.9921451 -0.0920869
vn 0.2017692 -0.9650363 -0.1673147
vn 0.2877987 -0.9411159 -0.1774057
vn 0.3630465 -0.9131713 -0.1852443
vn 0.3630465 -0.9131713 -0.1852443
vn -0.1633848 -0.9846522 -0.06136518
vn -0.00227815 -0.997456 -0.07124812
vn -0.001978968 -0.9974568 -0.07124548
vn -0.1575784 -0.9855559 -0.06203791
vn -0.3103038 -0.9502993 -0.02535723
vn -0.329313 -0.944081 -0.01624839
vn -0.4598629 -0.88718 0.03791681
vn -0.7663782 -0.6262384 0.1431434
vn -0.9281101 -0.3032035 0.2160538
vn -0.9281101 -0.3032035 0.2160538
g ribbon_0
f 3/3/3 2/2/2 1/1/1
f 2/2/2 4/4/4 1/1/1
f 2/2/2 5/5/5 4/4/4
f 5/5/5 6/6/6 4/4/4
f 5/5/5 7/7/7 6/6/6
f 7/7/7 8/8/8 6/6/6
f 7/7/7 9/9/9 8/8/8
f 9/9/9 10/10/10 8/8/8
f 9/9/9 11/11/11 10/10/10
f 11/11/11 12/12/12 10/10/10
f 11/11/11 13/13/13 12/12/12
f 13/13/13 14/14/14 12/12/12
f 13/13/13 15/15/15 14/14/14
f 15/15/15 16/16/16 14/14/14
f 15/15/15 17/17/17 16/16/16
f 17/17/17 18/18/18 16/16/16
f 21/21/21 20/20/20 19/19/19
f 20/20/20 22/22/22 19/19/19
f 19/19/19 22/22/22 23/23/23
f 22/22/22 24/24/24 23/23/23
f 25/25/25 23/23/23 24/24/24
f 26/26/26 25/25/25 24/24/24
f 27/27/27 25/25/25 26/26/26
f 28/28/28 27/27/27 26/26/26
f 31/31/31 30/30/30 29/29/29
f 32/32/32 31/31/31 29/29/29
f 33/33/33 31/31/31 32/32/32
f 34/34/34 33/33/33 32/32/32
f 35/35/35 33/33/33 34/34/34
f 36/36/36 35/35/35 34/34/34
f 37/37/37 35/35/35 36/36/36
f 38/38/38 37/37/37 36/36/36
f 39/39/39 37/37/37 38/38/38
f 40/40/40 39/39/39 38/38/38
f 41/41/41 39/39/39 40/40/40
f 42/42/42 41/41/41 40/40/40
f 43/43/43 41/41/41 42/42/42
f 44/44/44 43/43/43 42/42/42
f 44/44/44 45/45/45 43/43/43
f 45/45/45 46/46/46 43/43/43
f 49/49/49 48/48/48 47/47/47
f 50/50/50 49/49/49 47/47/47
f 50/50/50 47/47/47 51/51/51
f 52/52/52 50/50/50 51/51/51
f 51/51/51 53/53/53 52/52/52
f 53/53/53 54/54/54 52/52/52
f 53/53/53 55/55/55 54/54/54
f 55/55/55 56/56/56 54/54/54
