g f_scalp_nude
v 1.056535 97.71735 4.154052
v 2.843673E-15 97.8169 4.149369
v 3.097345E-15 98.52199 2.738548
v 1.053101 98.4391 2.712332
v 1.887483E-15 98.83749 1.384606
v 2.305093 98.02547 2.703505
v 2.297666 97.44979 4.019638
v 3.380462 96.9716 3.630222
v 1.058395 98.76244 1.388721
v 9.721696E-16 98.77351 -0.3728218
v 3.481401 97.38207 2.560637
v 4.21516 96.21091 2.982436
v 2.333616 98.31213 1.471897
v 4.308169 96.40211 2.207983
v 4.551764 95.6685 2.490859
v 4.843942 95.15369 1.974162
v 3.480882 97.60081 1.509851
v 4.905221 95.1575 1.288932
v 4.977627 94.60103 1.448054
v 5.13527 93.40035 0.6132092
v 4.352354 96.52363 1.505179
v 4.396201 96.54577 0.6821488
v 3.459175 97.67268 0.2139342
v 2.29772 98.29774 -0.1068366
v 5.005575 94.81768 -0.08368084
v 1.051588 98.69508 -0.2999062
v 2.252795 97.95229 -1.699976
v 1.022063 98.21072 -1.929874
v 1.37369E-15 98.29988 -1.954232
v 2.016338E-15 97.29214 -3.424923
v 4.422743 96.22971 -0.6631235
v 5.105623 92.91767 -0.7582625
v 5.118462 91.81639 0.2531064
v 5.097227 92.35528 -0.5949453
v 3.455748 97.39189 -1.273042
v 5.02255 94.35469 -1.172714
v 5.028574 92.68076 -1.431414
v 4.906943 92.19482 -1.071933
v 4.330086 95.59239 -1.986649
v 4.90764 93.55337 -2.183245
v 3.397877 96.46763 -2.704777
v 4.452384 91.27451 -2.001525
v 4.548663 91.38979 -1.210835
v 3.980948 90.50865 -1.127749
v 3.85058 90.16562 -1.727566
v 3.415004 89.68604 -0.9201056
v 4.217745 94.70506 -3.083466
v 4.699715 92.63834 -2.722229
v 4.452384 91.27451 -2.001525
v 2.184873 96.97031 -3.167849
v 1.011907 97.19601 -3.380702
v 2.132657 95.75256 -4.144597
v 1.025311 95.95966 -4.320244
v 2.242177E-15 96.0268 -4.421815
v 1.209677E-15 94.61156 -4.966009
v 3.275676 95.35885 -3.744914
v 0.9928201 94.53658 -4.89936
v 1.96587E-16 93.0362 -5.098356
v 4.023369 93.5176 -3.642259
v 3.116964 94.02409 -4.295311
v 2.064498 94.39632 -4.721028
v 0.987353 92.95324 -5.029236
v 2.037388 92.81516 -4.869575
v 2.998216 92.56468 -4.525927
v 3.627608 92.16605 -3.89186
v 0.9038309 91.44472 -4.603963
v 5.031614E-17 91.50503 -4.751653
v 1.578527 91.35499 -4.442509
v 0.8091787 89.89229 -3.77596
v 7.864595E-16 89.94154 -3.903491
v 8.669538E-16 88.93023 -3.28702
v 0.7180757 88.9252 -3.107337
v -8.064189E-16 88.0995 -2.782382
v 1.243523 88.11806 -2.348887
v 1.702067 89.79712 -3.346062
v 2.30714 91.21697 -4.216696
v 3.122691 90.9134 -3.620977
v 1.442312 88.92298 -2.843024
v 2.579748 89.72483 -2.568759
v 3.658279 90.4801 -2.716774
v 1.900238 88.92897 -2.346453
v 2.364804 88.94723 -1.634655
v 1.772554 88.16128 -1.794432
v 2.179422 88.03284 -0.9726877
v 3.070645 88.98466 -0.3705096
v 2.990042 89.55709 -1.659158
v 4.352593 91.66798 -2.97928
v -1.056535 97.71735 4.154052
v 3.097345E-15 98.52199 2.738548
v 2.843673E-15 97.8169 4.149369
v -1.053101 98.4391 2.712332
v 1.887483E-15 98.83749 1.384606
v -2.305093 98.02547 2.703505
v -2.297666 97.44979 4.019638
v -3.380462 96.9716 3.630222
v -1.058395 98.76244 1.388721
v 9.721696E-16 98.77351 -0.3728218
v -3.481401 97.38207 2.560637
v -4.21516 96.21091 2.982436
v -2.333616 98.31213 1.471897
v -4.308169 96.40211 2.207983
v -4.551764 95.6685 2.490859
v -4.843942 95.15369 1.974162
v -3.480882 97.60081 1.509851
v -4.905221 95.1575 1.288932
v -4.977627 94.60103 1.448054
v -5.13527 93.40035 0.6132092
v -4.352354 96.52363 1.505179
v -4.396201 96.54577 0.6821488
v -3.459175 97.67268 0.2139342
v -2.29772 98.29774 -0.1068366
v -5.005575 94.81768 -0.08368084
v -1.051588 98.69508 -0.2999062
v -2.252795 97.95229 -1.699976
v -1.022063 98.21072 -1.929874
v 1.37369E-15 98.29988 -1.954232
v 2.016338E-15 97.29214 -3.424923
v -4.422743 96.22971 -0.6631235
v -5.105623 92.91767 -0.7582625
v -5.118462 91.81639 0.2531064
v -5.097227 92.35528 -0.5949453
v -3.455748 97.39189 -1.273042
v -5.02255 94.35469 -1.172714
v -5.028574 92.68076 -1.431414
v -4.906943 92.19482 -1.071933
v -4.330086 95.59239 -1.986649
v -4.90764 93.55337 -2.183245
v -3.397877 96.46763 -2.704777
v -4.452384 91.27451 -2.001525
v -4.548663 91.38979 -1.210835
v -3.980948 90.50865 -1.127749
v -3.85058 90.16562 -1.727566
v -3.415004 89.68604 -0.9201056
v -4.217745 94.70506 -3.083466
v -4.699715 92.63834 -2.722229
v -4.452384 91.27451 -2.001525
v -2.184873 96.97031 -3.167849
v -1.011907 97.19601 -3.380702
v -2.132657 95.75256 -4.144597
v -1.025311 95.95966 -4.320244
v 2.242177E-15 96.0268 -4.421815
v 1.209677E-15 94.61156 -4.966009
v -3.275676 95.35885 -3.744914
v -0.9928201 94.53658 -4.89936
v 1.96587E-16 93.0362 -5.098356
v -4.023369 93.5176 -3.642259
v -3.116964 94.02409 -4.295311
v -2.064498 94.39632 -4.721028
v -0.987353 92.95324 -5.029236
v -2.037388 92.81516 -4.869575
v -2.998216 92.56468 -4.525927
v -3.627608 92.16605 -3.89186
v -0.9038309 91.44472 -4.603963
v 5.031614E-17 91.50503 -4.751653
v -1.578527 91.35499 -4.442509
v -0.8091787 89.89229 -3.77596
v 7.864595E-16 89.94154 -3.903491
v 8.669538E-16 88.93023 -3.28702
v -0.7180757 88.9252 -3.107337
v -8.064189E-16 88.0995 -2.782382
v -1.243523 88.11806 -2.348887
v -1.702067 89.79712 -3.346062
v -2.30714 91.21705 -4.216279
v -3.122691 90.9134 -3.620977
v -1.442312 88.92298 -2.843024
v -2.579748 89.72483 -2.568759
v -3.658279 90.4801 -2.716774
v -1.900238 88.92897 -2.335989
v -2.364804 88.94723 -1.634655
v -1.772554 88.16128 -1.794432
v -2.179422 88.03284 -0.9726877
v -3.070645 88.98466 -0.3705096
v -2.990042 89.55709 -1.659158
v -4.352593 91.66798 -2.97928
vt 0.4249495 0.7765371
vt 0.4480574 0.7765371
vt 0.4480574 0.763107
vt 0.4276852 0.7650546
vt 0.4480574 0.7531533
vt 0.3996481 0.7621328
vt 0.3907835 0.7765371
vt 0.3744375 0.7704666
vt 0.4306483 0.7525282
vt 0.4480574 0.740684
vt 0.3838979 0.7578374
vt 0.3651506 0.7613666
vt 0.4094298 0.7496719
vt 0.3674044 0.7518846
vt 0.3562985 0.7457644
vt 0.3562985 0.7283176
vt 0.3917506 0.7455577
vt 0.3641363 0.7195753
vt 0.3562985 0.7104413
vt 0.3562985 0.6949865
vt 0.3748451 0.7374675
vt 0.3817561 0.7280341
vt 0.3996481 0.7336481
vt 0.4158939 0.7371645
vt 0.3711827 0.706358
vt 0.4332736 0.7393049
vt 0.4209516 0.7221638
vt 0.4353207 0.7240828
vt 0.4480574 0.7257017
vt 0.4480574 0.7088456
vt 0.3888935 0.7143405
vt 0.3637366 0.6838975
vt 0.3562985 0.6825662
vt 0.3562985 0.679886
vt 0.4060259 0.7191069
vt 0.3779808 0.6927059
vt 0.366634 0.6770853
vt 0.3562985 0.6736333
vt 0.3944164 0.7004299
vt 0.3816448 0.6821921
vt 0.4108521 0.7048906
vt 0.3653108 0.6619617
vt 0.3562985 0.6660373
vt 0.3562985 0.6509148
vt 0.3665867 0.6482853
vt 0.3562985 0.6350914
vt 0.3974543 0.6872268
vt 0.3800381 0.672187
vt 0.3653108 0.6619617
vt 0.4248851 0.7068799
vt 0.4367245 0.7078774
vt 0.4270043 0.691051
vt 0.4374684 0.6909775
vt 0.4480574 0.690658
vt 0.4480574 0.6741125
vt 0.4141272 0.6904196
vt 0.4375948 0.6755717
vt 0.4480574 0.6592535
vt 0.397494 0.6753729
vt 0.4140833 0.676917
vt 0.4271536 0.6765488
vt 0.4368986 0.6616517
vt 0.4260131 0.6631442
vt 0.4131002 0.6636671
vt 0.3971553 0.6630318
vt 0.4350911 0.6473146
vt 0.4480574 0.6445126
vt 0.4229304 0.6490132
vt 0.4302224 0.6323607
vt 0.4480574 0.6322913
vt 0.4480574 0.6242826
vt 0.4269079 0.6238701
vt 0.4480574 0.6181552
vt 0.4079141 0.6181552
vt 0.4102975 0.6344578
vt 0.4120992 0.6498628
vt 0.3964407 0.6502411
vt 0.4089823 0.6246591
vt 0.3870205 0.6362642
vt 0.3807538 0.6502286
vt 0.3895985 0.6270255
vt 0.3744511 0.6279176
vt 0.3878661 0.6181552
vt 0.3724368 0.6181552
vt 0.3562985 0.6181378
vt 0.3704771 0.6392115
vt 0.3801391 0.6617683
vt 0.4249495 0.7765371
vt 0.4480574 0.763107
vt 0.4480574 0.7765371
vt 0.4276852 0.7650546
vt 0.4480574 0.7531533
vt 0.3996481 0.7621328
vt 0.3907835 0.7765371
vt 0.3744375 0.7704666
vt 0.4306483 0.7525282
vt 0.4480574 0.740684
vt 0.3838979 0.7578374
vt 0.3651506 0.7613666
vt 0.4094298 0.7496719
vt 0.3674044 0.7518846
vt 0.3562985 0.7457644
vt 0.3562985 0.7283176
vt 0.3917506 0.7455577
vt 0.3641363 0.7195753
vt 0.3562985 0.7104413
vt 0.3562985 0.6949865
vt 0.3748451 0.7374675
vt 0.3817561 0.7280341
vt 0.3996481 0.7336481
vt 0.4158939 0.7371645
vt 0.3711827 0.706358
vt 0.4332736 0.7393049
vt 0.4209516 0.7221638
vt 0.4353207 0.7240828
vt 0.4480574 0.7257017
vt 0.4480574 0.7088456
vt 0.3888935 0.7143405
vt 0.3637366 0.6838975
vt 0.3562985 0.6825662
vt 0.3562985 0.679886
vt 0.4060259 0.7191069
vt 0.3779808 0.6927059
vt 0.366634 0.6770853
vt 0.3562985 0.6736333
vt 0.3944164 0.7004299
vt 0.3816448 0.6821921
vt 0.4108521 0.7048906
vt 0.3653108 0.6619617
vt 0.3562985 0.6660373
vt 0.3562985 0.6509148
vt 0.3665867 0.6482853
vt 0.3562985 0.6350914
vt 0.3974543 0.6872268
vt 0.3800381 0.672187
vt 0.3653108 0.6619617
vt 0.4248851 0.7068799
vt 0.4367245 0.7078774
vt 0.4270043 0.691051
vt 0.4374684 0.6909775
vt 0.4480574 0.690658
vt 0.4480574 0.6741125
vt 0.4141272 0.6904196
vt 0.4375948 0.6755717
vt 0.4480574 0.6592535
vt 0.397494 0.6753729
vt 0.4140833 0.676917
vt 0.4271536 0.6765488
vt 0.4368986 0.6616517
vt 0.4260131 0.6631442
vt 0.4131002 0.6636671
vt 0.3971553 0.6630318
vt 0.4350911 0.6473146
vt 0.4480574 0.6445126
vt 0.4229304 0.6490132
vt 0.4302224 0.6323607
vt 0.4480574 0.6322913
vt 0.4480574 0.6242826
vt 0.4269079 0.6238701
vt 0.4480574 0.6181552
vt 0.4079141 0.6181552
vt 0.4102975 0.6344578
vt 0.4120992 0.6498628
vt 0.3964407 0.6502411
vt 0.4089823 0.6246591
vt 0.3870205 0.6362642
vt 0.3807538 0.6502286
vt 0.3895985 0.6270255
vt 0.3744511 0.6279176
vt 0.3878661 0.6181552
vt 0.3724368 0.6181552
vt 0.3562985 0.6181378
vt 0.3704771 0.6392115
vt 0.3801391 0.6617683
vn 0.1810466 0.8851417 0.4286565
vn 0 0.8943958 0.4472763
vn 0 0.9368755 0.3496632
vn 0.1911897 0.922676 0.3348363
vn 0 0.9966553 0.08171931
vn 0.3808405 0.872281 0.3067348
vn 0.3594953 0.8482611 0.3888652
vn 0.5891013 0.7375647 0.3300879
vn 0.2080187 0.9747701 0.08094082
vn 0 0.9862428 -0.1653035
vn 0.6225445 0.7409691 0.2517996
vn 0.786447 0.558769 0.2632075
vn 0.4058786 0.9094406 0.09044585
vn 0.8318634 0.5268207 0.1745372
vn 0.9134518 0.369257 0.1710406
vn 0.9301347 0.3514456 0.1064676
vn 0.6279374 0.7729499 0.09079178
vn 0.9605939 0.277353 0.01829449
vn 0.9922016 0.1187883 0.03775531
vn 0.9978274 0.06515386 -0.009772434
vn 0.8366877 0.5409334 0.08570221
vn 0.8591684 0.5102412 -0.03851871
vn 0.6431494 0.7618555 -0.07703805
vn 0.3976046 0.9100056 -0.1174752
vn 0.9688843 0.2383842 -0.06660431
vn 0.2042328 0.9673508 -0.150071
vn 0.3896293 0.8372613 -0.3836437
vn 0.1931231 0.8842911 -0.4251268
vn 0 0.9005513 -0.4347499
vn 0 0.7339505 -0.679203
vn 0.8657259 0.4685779 -0.1759359
vn 0.9975743 0.03246693 -0.06157504
vn 0.999762 -0.007245074 -0.02058083
vn 0.9925679 -0.08724038 -0.08484191
vn 0.6519859 0.6975662 -0.2971796
vn 0.9607535 0.2122258 -0.1786416
vn 0.981001 -0.1000744 -0.1661992
vn 0.9238524 -0.3560232 -0.140514
vn 0.8437607 0.4137453 -0.3418812
vn 0.9251463 0.1448431 -0.3508914
vn 0.6323751 0.5831503 -0.5099388
vn 0.8602929 -0.455563 -0.2288196
vn 0.8815296 -0.470538 -0.03872463
vn 0.8591125 -0.5071059 0.06906027
vn 0.7501305 -0.6265646 -0.2114733
vn 0.7062885 -0.6787933 -0.2009882
vn 0.8014621 0.2931808 -0.521252
vn 0.8616599 -0.06716461 -0.503022
vn 0.8602929 -0.455563 -0.2288196
vn 0.3747446 0.6850536 -0.6247142
vn 0.1832422 0.7202144 -0.6691141
vn 0.3453149 0.4759747 -0.8088298
vn 0.1700364 0.4966061 -0.851158
vn 0 0.4980601 -0.8671425
vn 0 0.2312225 -0.972901
vn 0.5808293 0.4126659 -0.7016725
vn 0.1407451 0.2285285 -0.9633097
vn 0 -0.0702338 -0.9975306
vn 0.741696 0.07554531 -0.6664682
vn 0.5285789 0.1754504 -0.830555
vn 0.2994893 0.2262865 -0.9268767
vn 0.1216614 -0.07978248 -0.9893601
vn 0.247651 -0.08693566 -0.9649411
vn 0.4671779 -0.1331587 -0.8740788
vn 0.6389053 -0.2322131 -0.7334011
vn 0.1172878 -0.3593453 -0.9258047
vn 0 -0.3577884 -0.9338027
vn 0.1850126 -0.3830504 -0.9050097
vn 0.1983693 -0.5179452 -0.8320952
vn 0 -0.5012984 -0.8652744
vn 0 -0.5421451 -0.8402849
vn 0.2419181 -0.5475866 -0.8010147
vn 0 -0.5611286 -0.8277286
vn 0.4572872 -0.5445936 -0.703069
vn 0.3854422 -0.5910761 -0.7085643
vn 0.3189394 -0.4377262 -0.8406386
vn 0.5074332 -0.5033646 -0.6993824
vn 0.4352028 -0.5640337 -0.701758
vn 0.5100636 -0.6857353 -0.5192323
vn 0.6543162 -0.579115 -0.4863085
vn 0.6119762 -0.5835131 -0.5338517
vn 0.7043189 -0.5756626 -0.4153883
vn 0.7187309 -0.430622 -0.5458851
vn 0.7716959 -0.4681211 -0.4305208
vn 0.7362313 -0.5608547 -0.3786892
vn 0.5969005 -0.727715 -0.3378471
vn 0.7606096 -0.3365654 -0.5551547
vn -0.1810465 0.8851414 0.4286572
vn 0 0.9368755 0.3496632
vn 0 0.8943958 0.4472763
vn -0.1911897 0.9226758 0.3348371
vn 0 0.9966553 0.08171931
vn -0.3808404 0.8722808 0.3067356
vn -0.3594953 0.848261 0.3888656
vn -0.5891016 0.737565 0.3300871
vn -0.2080188 0.9747701 0.08094062
vn 0 0.9862428 -0.1653035
vn -0.6225446 0.7409691 0.2517995
vn -0.7864474 0.5587692 0.2632063
vn -0.4058786 0.9094406 0.09044627
vn -0.8318636 0.5268208 0.1745362
vn -0.9134518 0.3692571 0.1710407
vn -0.9301347 0.3514459 0.1064665
vn -0.6279374 0.7729499 0.090792
vn -0.9605939 0.2773531 0.01829452
vn -0.9922014 0.1187885 0.03775531
vn -0.9978274 0.06515393 -0.009772529
vn -0.8366877 0.5409334 0.08570098
vn -0.8591684 0.5102412 -0.03851908
vn -0.6431494 0.7618555 -0.07703817
vn -0.3976046 0.9100056 -0.1174754
vn -0.9688843 0.2383842 -0.06660398
vn -0.2042328 0.9673507 -0.1500717
vn -0.3896294 0.8372614 -0.3836434
vn -0.1931231 0.884291 -0.425127
vn 0 0.9005513 -0.4347499
vn 0 0.7339505 -0.679203
vn -0.8657258 0.4685778 -0.1759361
vn -0.9975743 0.03246696 -0.06157493
vn -0.999762 -0.007244963 -0.02058079
vn -0.992568 -0.08724039 -0.08484042
vn -0.6519859 0.6975662 -0.2971799
vn -0.9607535 0.2122258 -0.1786416
vn -0.981001 -0.1000744 -0.1661994
vn -0.9238523 -0.3560232 -0.1405144
vn -0.8437605 0.4137452 -0.3418818
vn -0.9251462 0.144843 -0.3508918
vn -0.6323749 0.5831503 -0.5099388
vn -0.8602923 -0.4555629 -0.2288223
vn -0.8815293 -0.470538 -0.03873245
vn -0.8591126 -0.5071058 0.06905919
vn -0.7501304 -0.6265644 -0.2114745
vn -0.7062885 -0.678793 -0.2009895
vn -0.8014618 0.2931807 -0.5212524
vn -0.8616588 -0.06716469 -0.5030237
vn -0.8602923 -0.4555629 -0.2288223
vn -0.3747448 0.6850538 -0.624714
vn -0.1832421 0.7202145 -0.6691139
vn -0.3453149 0.4759747 -0.8088298
vn -0.1700363 0.4966063 -0.851158
vn 0 0.4980601 -0.8671425
vn 0 0.2312225 -0.972901
vn -0.5808294 0.4126659 -0.7016725
vn -0.1407452 0.2285286 -0.9633096
vn 0 -0.0702338 -0.9975306
vn -0.7416953 0.07554529 -0.666469
vn -0.5285785 0.1754504 -0.8305551
vn -0.2994892 0.2262866 -0.9268767
vn -0.1216615 -0.07978226 -0.9893601
vn -0.24769 -0.08698244 -0.9649267
vn -0.4671608 -0.1332064 -0.8740805
vn -0.6388613 -0.2322289 -0.7334343
vn -0.1172879 -0.3593458 -0.9258046
vn 0 -0.3577884 -0.9338027
vn -0.1851328 -0.3830954 -0.9049661
vn -0.1983693 -0.5179449 -0.8320954
vn 0 -0.5012984 -0.8652744
vn 0 -0.5421451 -0.8402849
vn -0.2419178 -0.5475859 -0.8010153
vn 0 -0.5611286 -0.8277286
vn -0.4576956 -0.5431419 -0.703926
vn -0.3859824 -0.5917544 -0.7077036
vn -0.3189533 -0.4377477 -0.8406222
vn -0.5073597 -0.5033585 -0.69944
vn -0.4370771 -0.5652279 -0.6996292
vn -0.5098869 -0.6861884 -0.5188072
vn -0.6543162 -0.5791152 -0.4863084
vn -0.612155 -0.5835843 -0.5335689
vn -0.7038168 -0.5755609 -0.4163791
vn -0.7187284 -0.4306207 -0.5458894
vn -0.7716959 -0.4681211 -0.4305208
vn -0.7362311 -0.5608543 -0.3786901
vn -0.5969005 -0.7277148 -0.3378476
vn -0.7606089 -0.3365656 -0.5551556
g f_scalp_nude_0
f 3/3/3 2/2/2 1/1/1
f 4/4/4 3/3/3 1/1/1
f 3/3/3 4/4/4 5/5/5
f 4/4/4 1/1/1 6/6/6
f 1/1/1 7/7/7 6/6/6
f 6/6/6 7/7/7 8/8/8
f 4/4/4 9/9/9 5/5/5
f 4/4/4 6/6/6 9/9/9
f 5/5/5 9/9/9 10/10/10
f 11/11/11 6/6/6 8/8/8
f 11/11/11 8/8/8 12/12/12
f 6/6/6 13/13/13 9/9/9
f 6/6/6 11/11/11 13/13/13
f 14/14/14 11/11/11 12/12/12
f 15/15/15 14/14/14 12/12/12
f 15/15/15 16/16/16 14/14/14
f 11/11/11 17/17/17 13/13/13
f 11/11/11 14/14/14 17/17/17
f 16/16/16 18/18/18 14/14/14
f 18/18/18 16/16/16 19/19/19
f 18/18/18 19/19/19 20/20/20
f 14/14/14 21/21/21 17/17/17
f 18/18/18 21/21/21 14/14/14
f 21/21/21 22/22/22 17/17/17
f 18/18/18 22/22/22 21/21/21
f 17/17/17 23/23/23 13/13/13
f 22/22/22 23/23/23 17/17/17
f 13/13/13 24/24/24 9/9/9
f 23/23/23 24/24/24 13/13/13
f 25/25/25 18/18/18 20/20/20
f 22/22/22 18/18/18 25/25/25
f 24/24/24 26/26/26 9/9/9
f 9/9/9 26/26/26 10/10/10
f 26/26/26 24/24/24 27/27/27
f 27/27/27 24/24/24 23/23/23
f 10/10/10 26/26/26 28/28/28
f 28/28/28 26/26/26 27/27/27
f 29/29/29 10/10/10 28/28/28
f 29/29/29 28/28/28 30/30/30
f 23/23/23 22/22/22 31/31/31
f 31/31/31 22/22/22 25/25/25
f 20/20/20 32/32/32 25/25/25
f 33/33/33 32/32/32 20/20/20
f 34/34/34 32/32/32 33/33/33
f 35/35/35 27/27/27 23/23/23
f 35/35/35 23/23/23 31/31/31
f 25/25/25 36/36/36 31/31/31
f 32/32/32 36/36/36 25/25/25
f 37/37/37 32/32/32 34/34/34
f 37/37/37 34/34/34 38/38/38
f 31/31/31 39/39/39 35/35/35
f 36/36/36 39/39/39 31/31/31
f 40/40/40 36/36/36 32/32/32
f 37/37/37 40/40/40 32/32/32
f 39/39/39 36/36/36 40/40/40
f 35/35/35 41/41/41 27/27/27
f 39/39/39 41/41/41 35/35/35
f 37/37/37 38/38/38 42/42/42
f 43/43/43 42/42/42 38/38/38
f 43/43/43 44/44/44 42/42/42
f 45/45/45 42/42/42 44/44/44
f 44/44/44 46/46/46 45/45/45
f 47/47/47 39/39/39 40/40/40
f 41/41/41 39/39/39 47/47/47
f 37/37/37 48/48/48 40/40/40
f 40/40/40 48/48/48 47/47/47
f 49/49/49 48/48/48 37/37/37
f 41/41/41 50/50/50 27/27/27
f 27/27/27 50/50/50 28/28/28
f 50/50/50 51/51/51 28/28/28
f 28/28/28 51/51/51 30/30/30
f 52/52/52 50/50/50 41/41/41
f 51/51/51 50/50/50 52/52/52
f 30/30/30 51/51/51 53/53/53
f 53/53/53 51/51/51 52/52/52
f 54/54/54 30/30/30 53/53/53
f 54/54/54 53/53/53 55/55/55
f 56/56/56 41/41/41 47/47/47
f 56/56/56 52/52/52 41/41/41
f 53/53/53 57/57/57 55/55/55
f 58/58/58 55/55/55 57/57/57
f 47/47/47 59/59/59 56/56/56
f 48/48/48 59/59/59 47/47/47
f 56/56/56 60/60/60 52/52/52
f 59/59/59 60/60/60 56/56/56
f 52/52/52 61/61/61 53/53/53
f 61/61/61 57/57/57 53/53/53
f 60/60/60 61/61/61 52/52/52
f 62/62/62 58/58/58 57/57/57
f 57/57/57 61/61/61 62/62/62
f 61/61/61 60/60/60 63/63/63
f 61/61/61 63/63/63 62/62/62
f 64/64/64 60/60/60 59/59/59
f 60/60/60 64/64/64 63/63/63
f 59/59/59 48/48/48 65/65/65
f 65/65/65 64/64/64 59/59/59
f 58/58/58 62/62/62 66/66/66
f 67/67/67 58/58/58 66/66/66
f 62/62/62 63/63/63 68/68/68
f 66/66/66 62/62/62 68/68/68
f 68/68/68 63/63/63 64/64/64
f 67/67/67 66/66/66 69/69/69
f 66/66/66 68/68/68 69/69/69
f 70/70/70 67/67/67 69/69/69
f 70/70/70 69/69/69 71/71/71
f 69/69/69 72/72/72 71/71/71
f 73/73/73 71/71/71 72/72/72
f 74/74/74 73/73/73 72/72/72
f 69/69/69 68/68/68 75/75/75
f 72/72/72 69/69/69 75/75/75
f 76/76/76 68/68/68 64/64/64
f 75/75/75 68/68/68 76/76/76
f 76/76/76 64/64/64 77/77/77
f 76/76/76 77/77/77 75/75/75
f 64/64/64 65/65/65 77/77/77
f 78/78/78 72/72/72 75/75/75
f 74/74/74 72/72/72 78/78/78
f 75/75/75 77/77/77 79/79/79
f 75/75/75 79/79/79 78/78/78
f 77/77/77 65/65/65 80/80/80
f 77/77/77 80/80/80 79/79/79
f 74/74/74 78/78/78 81/81/81
f 79/79/79 81/81/81 78/78/78
f 74/74/74 81/81/81 82/82/82
f 81/81/81 79/79/79 82/82/82
f 83/83/83 74/74/74 82/82/82
f 83/83/83 82/82/82 84/84/84
f 85/85/85 84/84/84 82/82/82
f 82/82/82 79/79/79 86/86/86
f 82/82/82 86/86/86 85/85/85
f 79/79/79 80/80/80 86/86/86
f 46/46/46 85/85/85 86/86/86
f 86/86/86 45/45/45 46/46/46
f 86/86/86 80/80/80 45/45/45
f 65/65/65 87/87/87 80/80/80
f 80/80/80 87/87/87 45/45/45
f 48/48/48 87/87/87 65/65/65
f 87/87/87 49/49/49 45/45/45
f 87/87/87 48/48/48 49/49/49
f 90/90/90 89/89/89 88/88/88
f 89/89/89 91/91/91 88/88/88
f 91/91/91 89/89/89 92/92/92
f 88/88/88 91/91/91 93/93/93
f 94/94/94 88/88/88 93/93/93
f 94/94/94 93/93/93 95/95/95
f 96/96/96 91/91/91 92/92/92
f 93/93/93 91/91/91 96/96/96
f 96/96/96 92/92/92 97/97/97
f 93/93/93 98/98/98 95/95/95
f 95/95/95 98/98/98 99/99/99
f 100/100/100 93/93/93 96/96/96
f 98/98/98 93/93/93 100/100/100
f 98/98/98 101/101/101 99/99/99
f 101/101/101 102/102/102 99/99/99
f 103/103/103 102/102/102 101/101/101
f 104/104/104 98/98/98 100/100/100
f 101/101/101 98/98/98 104/104/104
f 105/105/105 103/103/103 101/101/101
f 103/103/103 105/105/105 106/106/106
f 106/106/106 105/105/105 107/107/107
f 108/108/108 101/101/101 104/104/104
f 108/108/108 105/105/105 101/101/101
f 109/109/109 108/108/108 104/104/104
f 109/109/109 105/105/105 108/108/108
f 110/110/110 104/104/104 100/100/100
f 110/110/110 109/109/109 104/104/104
f 111/111/111 100/100/100 96/96/96
f 111/111/111 110/110/110 100/100/100
f 105/105/105 112/112/112 107/107/107
f 105/105/105 109/109/109 112/112/112
f 113/113/113 111/111/111 96/96/96
f 113/113/113 96/96/96 97/97/97
f 111/111/111 113/113/113 114/114/114
f 111/111/111 114/114/114 110/110/110
f 113/113/113 97/97/97 115/115/115
f 113/113/113 115/115/115 114/114/114
f 97/97/97 116/116/116 115/115/115
f 115/115/115 116/116/116 117/117/117
f 109/109/109 110/110/110 118/118/118
f 109/109/109 118/118/118 112/112/112
f 119/119/119 107/107/107 112/112/112
f 119/119/119 120/120/120 107/107/107
f 119/119/119 121/121/121 120/120/120
f 114/114/114 122/122/122 110/110/110
f 110/110/110 122/122/122 118/118/118
f 123/123/123 112/112/112 118/118/118
f 123/123/123 119/119/119 112/112/112
f 119/119/119 124/124/124 121/121/121
f 121/121/121 124/124/124 125/125/125
f 126/126/126 118/118/118 122/122/122
f 126/126/126 123/123/123 118/118/118
f 123/123/123 127/127/127 119/119/119
f 127/127/127 124/124/124 119/119/119
f 123/123/123 126/126/126 127/127/127
f 128/128/128 122/122/122 114/114/114
f 128/128/128 126/126/126 122/122/122
f 125/125/125 124/124/124 129/129/129
f 129/129/129 130/130/130 125/125/125
f 131/131/131 130/130/130 129/129/129
f 129/129/129 132/132/132 131/131/131
f 133/133/133 131/131/131 132/132/132
f 126/126/126 134/134/134 127/127/127
f 126/126/126 128/128/128 134/134/134
f 135/135/135 124/124/124 127/127/127
f 135/135/135 127/127/127 134/134/134
f 135/135/135 136/136/136 124/124/124
f 137/137/137 128/128/128 114/114/114
f 137/137/137 114/114/114 115/115/115
f 138/138/138 137/137/137 115/115/115
f 138/138/138 115/115/115 117/117/117
f 137/137/137 139/139/139 128/128/128
f 137/137/137 138/138/138 139/139/139
f 138/138/138 117/117/117 140/140/140
f 138/138/138 140/140/140 139/139/139
f 117/117/117 141/141/141 140/140/140
f 140/140/140 141/141/141 142/142/142
f 128/128/128 143/143/143 134/134/134
f 139/139/139 143/143/143 128/128/128
f 144/144/144 140/140/140 142/142/142
f 142/142/142 145/145/145 144/144/144
f 146/146/146 134/134/134 143/143/143
f 146/146/146 135/135/135 134/134/134
f 147/147/147 143/143/143 139/139/139
f 147/147/147 146/146/146 143/143/143
f 148/148/148 139/139/139 140/140/140
f 144/144/144 148/148/148 140/140/140
f 148/148/148 147/147/147 139/139/139
f 145/145/145 149/149/149 144/144/144
f 148/148/148 144/144/144 149/149/149
f 147/147/147 148/148/148 150/150/150
f 150/150/150 148/148/148 149/149/149
f 147/147/147 151/151/151 146/146/146
f 151/151/151 147/147/147 150/150/150
f 135/135/135 146/146/146 152/152/152
f 151/151/151 152/152/152 146/146/146
f 149/149/149 145/145/145 153/153/153
f 145/145/145 154/154/154 153/153/153
f 150/150/150 149/149/149 155/155/155
f 149/149/149 153/153/153 155/155/155
f 150/150/150 155/155/155 151/151/151
f 153/153/153 154/154/154 156/156/156
f 155/155/155 153/153/153 156/156/156
f 154/154/154 157/157/157 156/156/156
f 156/156/156 157/157/157 158/158/158
f 159/159/159 156/156/156 158/158/158
f 158/158/158 160/160/160 159/159/159
f 160/160/160 161/161/161 159/159/159
f 155/155/155 156/156/156 162/162/162
f 156/156/156 159/159/159 162/162/162
f 155/155/155 163/163/163 151/151/151
f 155/155/155 162/162/162 163/163/163
f 151/151/151 163/163/163 164/164/164
f 164/164/164 163/163/163 162/162/162
f 152/152/152 151/151/151 164/164/164
f 159/159/159 165/165/165 162/162/162
f 159/159/159 161/161/161 165/165/165
f 164/164/164 162/162/162 166/166/166
f 166/166/166 162/162/162 165/165/165
f 152/152/152 164/164/164 167/167/167
f 167/167/167 164/164/164 166/166/166
f 165/165/165 161/161/161 168/168/168
f 168/168/168 166/166/166 165/165/165
f 168/168/168 161/161/161 169/169/169
f 166/166/166 168/168/168 169/169/169
f 161/161/161 170/170/170 169/169/169
f 169/169/169 170/170/170 171/171/171
f 171/171/171 172/172/172 169/169/169
f 166/166/166 169/169/169 173/173/173
f 173/173/173 169/169/169 172/172/172
f 167/167/167 166/166/166 173/173/173
f 172/172/172 133/133/133 173/173/173
f 132/132/132 173/173/173 133/133/133
f 167/167/167 173/173/173 132/132/132
f 174/174/174 152/152/152 167/167/167
f 174/174/174 167/167/167 132/132/132
f 174/174/174 135/135/135 152/152/152
f 136/136/136 174/174/174 132/132/132
f 135/135/135 174/174/174 136/136/136
