g sunglasses
v -0.02069626 0.084295 -0.006028752
v -0.00190125 0.08179501 -0.0002212477
v -0.02737625 0.07611001 -0.004876251
v -0.008111248 0.0904425 -0.006418748
v 0.007283754 0.091305 -0.006693749
v 0.01553125 0.07894 -0.003318744
v 0.01406624 0.06533249 0.003778748
v -0.00615375 0.06557 0.005688758
v 0.01346624 0.050005 0.008846254
v -0.00697124 0.04939 0.01038875
v -0.03090374 0.0487175 0.001643748
v -0.03150626 0.06369501 -0.002483745
v -0.02481124 0.032665 0.00666625
v -0.003673749 0.03369 0.01286125
v 0.01447875 0.0359825 0.01035375
v 0.02793374 0.0775675 -0.005546255
v 0.03163125 0.0655925 -0.002823753
v 0.03163125 0.0508125 0.001161246
v 0.03163125 0.0375175 0.003961248
v 0.03163125 0.02634 0.00584125
v 0.01597375 0.0232725 0.01103625
v 0.02705126 0.019235 0.007593756
v 0.01773624 0.0134275 0.01040875
v 0.007581258 0.009735 0.01254375
v 0.0003837538 0.0207875 0.01316874
v 0.0005012464 0.00927 0.01271375
v -0.01341875 0.0184275 0.01088376
v 0.003728747 0.004892499 0.01271375
v 0.008771253 0.0051175 0.01255125
v 0.00478375 0 0.01299625
v 0.009293742 0 0.01248374
v 0.03188126 0 0.006421251
v 0.02705126 0 0.008368749
v 0.02705126 -0.01923501 0.007593756
v 0.03163125 -0.02634 0.00584125
v 0.01597375 -0.0232725 0.01103625
v 0.01773624 -0.0134275 0.01040875
v 0.01447875 -0.0359825 0.01035375
v 0.03163125 -0.0375175 0.003961248
v 0.01346624 -0.050005 0.008846254
v -0.003673749 -0.03369 0.01286125
v -0.00697124 -0.04939 0.01038875
v -0.02481124 -0.032665 0.00666625
v -0.03090374 -0.0487175 0.001643748
v 0.03163125 -0.0508125 0.001161246
v 0.0003837538 -0.0207875 0.01316874
v -0.01341874 -0.0184275 0.01088376
v 0.0005012464 -0.00927 0.01271375
v 0.007581258 -0.009735002 0.01254375
v 0.003728747 -0.004892502 0.01271375
v 0.008771253 -0.005117502 0.01255125
v -0.00615375 -0.06557 0.005688758
v -0.03150625 -0.063695 -0.002483745
v 0.01406624 -0.06533249 0.003778748
v -0.001901245 -0.08179501 -0.0002212477
v 0.01553125 -0.07894 -0.003318744
v 0.007283763 -0.091305 -0.006693749
v 0.01951125 -0.0865575 -0.006676249
v -0.008111238 -0.0904425 -0.006418748
v -0.02069626 -0.084295 -0.006028752
v -0.02737624 -0.07611 -0.004876251
v 0.02793374 -0.0775675 -0.005546255
v 0.03163125 -0.06559251 -0.002823753
v 0.01951124 0.0865575 -0.006676249
v 0.01951124 0.0865575 -0.006676249
v 0.01940124 0.0868875 -0.01316874
v 0.02848875 0.07769249 -0.01213375
v 0.02793374 0.0775675 -0.005546255
v 0.03163626 0.06420249 -0.008621245
v 0.03163125 0.0655925 -0.002823753
v 0.03163125 0.0508125 0.001161246
v 0.03163626 0.043585 -0.003881245
v 0.03163125 0.0375175 0.003961248
v 0.03163626 0.022625 -0.0006587458
v 0.03163125 0.02634 0.00584125
v 0.03188126 0 0.006421251
v 0.03188624 0 0.0002562475
v 0.008036251 0.0915525 -0.01313124
v 0.007283754 0.091305 -0.006693749
v -0.007241258 0.09126499 -0.01281125
v -0.008111248 0.0904425 -0.006418748
v -0.02013627 0.0854625 -0.01226625
v -0.02069626 0.084295 -0.006028752
v -0.02772375 0.0766225 -0.01113874
v -0.02737625 0.07611001 -0.004876251
v -0.03188625 0.06343 -0.008636255
v -0.03150626 0.06369501 -0.002483745
v -0.03127625 0.0481425 -0.004471249
v -0.03090374 0.0487175 0.001643748
v -0.02487376 0.0317025 0.0006037521
v -0.02481124 0.032665 0.00666625
v -0.01343625 0.01773 0.004713755
v -0.01341875 0.0184275 0.01088376
v 0.0005012464 0.00927 0.006006246
v 0.0005012464 0.00927 0.01271375
v 0.003728747 0.004892499 0.006331248
v 0.003728747 0.004892499 0.01271375
v 0.00478375 0 0.006281252
v 0.00478375 0 0.01299625
v 0.02705126 0.019235 0.007593756
v 0.02705126 0.019235 0.001083751
v 0.01771125 0.013275 0.004023748
v 0.01773624 0.0134275 0.01040875
v 0.007581258 0.009735 0.005826254
v 0.007581258 0.009735 0.01254375
v 0.008771253 0.0051175 0.005913754
v 0.008771253 0.0051175 0.01255125
v 0.02705126 0 0.001733751
v 0.02705126 0 0.008368749
v 0.009293742 0 0.01248374
v 0.009293742 0 0.005853753
v 0.01951125 -0.0865575 -0.006676249
v 0.02793374 -0.0775675 -0.005546255
v 0.02848876 -0.07769251 -0.01213375
v 0.01940124 -0.0868875 -0.01316874
v 0.03163626 -0.06420249 -0.008621245
v 0.03163125 -0.06559251 -0.002823753
v 0.03163125 -0.0508125 0.001161246
v 0.03163626 -0.04358499 -0.003881245
v 0.03163125 -0.0375175 0.003961248
v 0.03163626 -0.022625 -0.0006587458
v 0.03163125 -0.02634 0.00584125
v 0.00803626 -0.0915525 -0.01313124
v 0.007283763 -0.091305 -0.006693749
v -0.007241249 -0.091265 -0.01281125
v -0.008111238 -0.0904425 -0.006418748
v -0.02013626 -0.0854625 -0.01226625
v -0.02069626 -0.084295 -0.006028752
v -0.02772375 -0.0766225 -0.01113874
v -0.02737624 -0.07611 -0.004876251
v -0.03188625 -0.06343 -0.008636255
v -0.03150625 -0.063695 -0.002483745
v -0.03127625 -0.0481425 -0.004471249
v -0.03090374 -0.0487175 0.001643748
v -0.02487376 -0.0317025 0.0006037521
v -0.02481124 -0.032665 0.00666625
v -0.01343624 -0.01773 0.004713755
v -0.01341874 -0.0184275 0.01088376
v 0.0005012464 -0.00927 0.006006246
v 0.0005012464 -0.00927 0.01271375
v 0.003728747 -0.004892502 0.006331248
v 0.003728747 -0.004892502 0.01271375
v 0.00478375 0 0.006281252
v 0.00478375 0 0.01299625
v 0.03188126 0 0.006421251
v 0.03188624 0 0.0002562475
v 0.02705126 -0.01923501 0.007593756
v 0.02705126 -0.01923501 0.001083751
v 0.02705126 0 0.001733751
v 0.02705126 0 0.008368749
v 0.01771125 -0.013275 0.004023748
v 0.01773624 -0.0134275 0.01040875
v 0.007581258 -0.009735002 0.005826254
v 0.007581258 -0.009735002 0.01254375
v 0.008771253 -0.005117502 0.005913754
v 0.008771253 -0.005117502 0.01255125
v 0.009293742 0 0.01248374
v 0.009293742 0 0.005853753
vt 0.1216 0.7482
vt 0.1433 0.8293
vt 0.1555 0.7175
vt 0.0981 0.8037
vt 0.0964 0.87
vt 0.1511 0.9048
vt 0.2157 0.8956
vt 0.215 0.8095
vt 0.2833 0.8912
vt 0.2854 0.8048
vt 0.2773 0.6977
vt 0.2096 0.6971
vt 0.3511 0.7237
vt 0.3522 0.8172
vt 0.3425 0.8948
vt 0.1549 0.9585
vt 0.2078 0.9745
vt 0.2738 0.974
vt 0.333 0.9724
vt 0.3821 0.9703
vt 0.3962 0.9004
vt 0.4127 0.9497
vt 0.4378 0.9083
vt 0.4533 0.8639
vt 0.4066 0.8336
vt 0.4551 0.8337
vt 0.4153 0.7738
vt 0.4736 0.8474
vt 0.4727 0.8688
vt 0.4943 0.8518
vt 0.4943 0.871
vt 0.4943 0.9711
vt 0.4944 0.9491
vt 0.5759 0.9499
vt 0.6065 0.9704
vt 0.5924 0.9006
vt 0.5508 0.9085
vt 0.6461 0.8949
vt 0.6557 0.9725
vt 0.7053 0.8913
vt 0.6364 0.8173
vt 0.7032 0.8048
vt 0.6375 0.7238
vt 0.7112 0.6977
vt 0.7148 0.974
vt 0.582 0.8337
vt 0.5733 0.7739
vt 0.5335 0.8339
vt 0.5353 0.8641
vt 0.515 0.8475
vt 0.5158 0.8689
vt 0.7735 0.8095
vt 0.7789 0.6971
vt 0.7729 0.8957
vt 0.8453 0.8293
vt 0.8375 0.9048
vt 0.8922 0.87
vt 0.8724 0.9223
vt 0.8905 0.8037
vt 0.867 0.7482
vt 0.833 0.7175
vt 0.8338 0.9585
vt 0.7809 0.9745
vt 0.1163 0.9223
vt 1.6144 0.614
vt 1.6161 0.5865
vt 1.6701 0.5968
vt 1.6657 0.6245
vt 1.7258 0.6205
vt 1.7165 0.644
vt 1.7761 0.6697
vt 1.8095 0.6529
vt 1.8302 0.6894
vt 1.8954 0.6791
vt 1.8759 0.7041
vt 1.9861 0.7224
vt 1.9898 0.6966
vt 1.5642 0.5816
vt 1.559 0.6086
vt 1.4996 0.5782
vt 1.4938 0.6051
vt 1.4396 0.5783
vt 1.4344 0.6048
vt 1.3902 0.5833
vt 1.3896 0.6099
vt 1.332 0.5961
vt 1.3346 0.6222
vt 1.2683 0.6175
vt 1.2722 0.6433
vt 1.1955 0.6451
vt 1.2014 0.6704
vt 1.1214 0.6708
vt 1.1265 0.6966
vt 1.0537 0.6857
vt 1.0576 0.7139
vt 1.031 0.6903
vt 1.0347 0.7171
vt 1.01 0.693
vt 1.0139 0.7212
vt 0.525 0.6951
vt 0.5278 0.6677
vt 0.4798 0.6753
vt 0.4775 0.7023
vt 0.4338 0.6784
vt 0.431 0.7068
vt 0.4137 0.6768
vt 0.4109 0.7048
vt 0.6086 0.6788
vt 0.6058 0.7068
vt 0.3892 0.7024
vt 0.392 0.6744
vt 0.6144 0.614
vt 0.6657 0.6245
vt 0.6701 0.5968
vt 0.6161 0.5865
vt 0.7258 0.6205
vt 0.7165 0.644
vt 0.7761 0.6697
vt 0.8095 0.6529
vt 0.8302 0.6894
vt 0.8954 0.6791
vt 0.8759 0.7041
vt 0.5642 0.5816
vt 0.559 0.6086
vt 0.4996 0.5782
vt 0.4938 0.6051
vt 0.4396 0.5783
vt 0.4344 0.6048
vt 0.3902 0.5833
vt 0.3896 0.6099
vt 0.332 0.5961
vt 0.3346 0.6222
vt 0.2683 0.6175
vt 0.2722 0.6433
vt 0.1955 0.6451
vt 0.2014 0.6704
vt 0.1214 0.6708
vt 0.1265 0.6966
vt 0.0537 0.6857
vt 0.0576 0.7139
vt 0.031 0.6903
vt 0.0347 0.7171
vt 0.01 0.693
vt 0.0139 0.7212
vt 0.9861 0.7224
vt 0.9898 0.6966
vt 1.525 0.6951
vt 1.5278 0.6677
vt 1.6086 0.6788
vt 1.6058 0.7068
vt 1.4798 0.6753
vt 1.4775 0.7023
vt 1.4338 0.6784
vt 1.431 0.7068
vt 1.4137 0.6768
vt 1.4109 0.7048
vt 1.3892 0.7024
vt 1.392 0.6744
vn -0.5223097 0.6662123 0.5323098
vn 0.002400141 0.4138243 0.9103536
vn -0.6965973 0.4664982 0.5450978
vn -0.2298061 0.8365221 0.4974132
vn 0.1455081 0.8554478 0.4970277
vn 0.2129033 0.3690056 0.9047138
vn 0.2070955 0.366492 0.9070805
vn -0.1111 0.3143001 0.9428002
vn 0.2162035 0.2090035 0.9537157
vn -0.1559025 0.1995032 0.9674156
vn -0.8171549 -0.00759958 0.5763681
vn -0.8075007 0.2290002 0.5436006
vn -0.7412118 -0.2298037 0.6307101
vn -0.08799896 0.06359925 0.9940882
vn 0.231302 0.1002008 0.9677082
vn 0.6733051 0.4789036 0.5633042
vn 0.8280256 0.2497077 0.5020155
vn 0.8233936 0.133699 0.5514957
vn 0.8116012 0.1098002 0.5738009
vn 0.7921333 0.06820286 0.6065255
vn 0.218892 0.027399 0.9753643
vn 0.1485967 -0.2324949 0.961179
vn 0.4501049 -0.6218068 0.640907
vn 0.4570736 -0.155391 0.8757495
vn -0.01090036 0.003900129 0.999933
vn -0.4619041 -0.4783043 0.7469067
vn -0.5751956 -0.4421967 0.6881948
vn -0.5920922 -0.2447968 0.7677899
vn 0.7213023 0.1247004 0.6813022
vn -0.5889028 0 0.8082039
vn 0.7665631 0 0.6421691
vn 0.8260643 0 0.5635757
vn -0.5497983 0 0.8352975
vn 0.1485967 0.2324949 0.961179
vn 0.7921333 -0.06820286 0.6065255
vn 0.218892 -0.027399 0.9753643
vn 0.4501049 0.6218068 0.640907
vn 0.231302 -0.1002008 0.9677082
vn 0.8116012 -0.1098002 0.5738009
vn 0.2162035 -0.2090035 0.9537157
vn -0.08799896 -0.06359925 0.9940882
vn -0.1559025 -0.1995032 0.9674156
vn -0.7412118 0.2298037 0.6307101
vn -0.8171549 0.00759958 0.5763681
vn 0.8233936 -0.133699 0.5514957
vn -0.01090036 -0.003900129 0.999933
vn -0.5751956 0.4421967 0.6881948
vn -0.4619041 0.4783043 0.7469067
vn 0.4570736 0.155391 0.8757495
vn -0.5920922 0.2447968 0.7677899
vn 0.7213023 -0.1247004 0.6813022
vn -0.1111 -0.3143001 0.9428002
vn -0.8075007 -0.2290002 0.5436006
vn 0.2070955 -0.366492 0.9070805
vn 0.002400141 -0.4138243 0.9103536
vn 0.2129033 -0.3690056 0.9047138
vn 0.1455081 -0.8554478 0.4970277
vn 0.4580839 -0.7111751 0.5332813
vn -0.2298061 -0.8365221 0.4974132
vn -0.5223097 -0.6662123 0.5323098
vn -0.6965973 -0.4664982 0.5450978
vn 0.6733051 -0.4789036 0.5633042
vn 0.8280256 -0.2497077 0.5020155
vn 0.4580839 0.7111751 0.5332813
vn 0.4580839 0.7111751 0.5332813
vn 0.5468004 0.8366005 0.03330003
vn 0.8524643 0.5163783 0.08159659
vn 0.6733051 0.4789036 0.5633042
vn 0.9938013 0.1083001 -0.02510003
vn 0.8280256 0.2497077 0.5020155
vn 0.8233936 0.133699 0.5514957
vn 0.9999998 0.0001999999 0.0006999998
vn 0.8116012 0.1098002 0.5738009
vn 0.9999711 0.006899801 -0.003199908
vn 0.7921333 0.06820286 0.6065255
vn 0.8260643 0 0.5635757
vn 0.9999997 0 0.0007999998
vn 0.1995007 0.9780034 0.0609002
vn 0.1455081 0.8554478 0.4970277
vn -0.1921034 0.9763174 0.09950177
vn -0.2298061 0.8365221 0.4974132
vn -0.5633091 0.8198134 0.1029017
vn -0.5223097 0.6662123 0.5323098
vn -0.8526264 0.514816 0.08940277
vn -0.6965973 0.4664982 0.5450978
vn -0.9850085 0.1639014 0.05380047
vn -0.8075007 0.2290002 0.5436006
vn -0.9838375 -0.1625062 0.07520287
vn -0.8171549 -0.00759958 0.5763681
vn -0.8768108 -0.4734058 0.08420105
vn -0.7412118 -0.2298037 0.6307101
vn -0.6690198 -0.7383217 0.0854025
vn -0.5751956 -0.4421967 0.6881948
vn -0.6682406 -0.7439452 0
vn -0.4619041 -0.4783043 0.7469067
vn -0.9101334 -0.4143153 0
vn -0.5920922 -0.2447968 0.7677899
vn -1 0 0
vn -0.5889028 0 0.8082039
vn 0.1485967 -0.2324949 0.961179
vn -0.6010875 -0.7991832 0
vn 0.4533975 -0.8910951 0.01949989
vn 0.4501049 -0.6218068 0.640907
vn 0.8562906 -0.5164943 0
vn 0.4570736 -0.155391 0.8757495
vn 0.9843558 0.1761921 0
vn 0.7213023 0.1247004 0.6813022
vn -1 0 0
vn -0.5497983 0 0.8352975
vn 0.7665631 0 0.6421691
vn 1 0 0
vn 0.4580839 -0.7111751 0.5332813
vn 0.6733051 -0.4789036 0.5633042
vn 0.8524643 -0.5163783 0.08159659
vn 0.5468004 -0.8366005 0.03330003
vn 0.9938013 -0.1083001 -0.02510003
vn 0.8280256 -0.2497077 0.5020155
vn 0.8233936 -0.133699 0.5514957
vn 0.9999998 -0.0001999999 0.0006999998
vn 0.8116012 -0.1098002 0.5738009
vn 0.9999711 -0.006899801 -0.003199908
vn 0.7921333 -0.06820286 0.6065255
vn 0.1995007 -0.9780034 0.0609002
vn 0.1455081 -0.8554478 0.4970277
vn -0.1921034 -0.9763174 0.09950177
vn -0.2298061 -0.8365221 0.4974132
vn -0.5633091 -0.8198134 0.1029017
vn -0.5223097 -0.6662123 0.5323098
vn -0.8526264 -0.514816 0.08940277
vn -0.6965973 -0.4664982 0.5450978
vn -0.9850085 -0.1639014 0.05380047
vn -0.8075007 -0.2290002 0.5436006
vn -0.9838375 0.1625062 0.07520287
vn -0.8171549 0.00759958 0.5763681
vn -0.8768108 0.4734058 0.08420105
vn -0.7412118 0.2298037 0.6307101
vn -0.6690198 0.7383217 0.0854025
vn -0.5751956 0.4421967 0.6881948
vn -0.6682406 0.7439452 0
vn -0.4619041 0.4783043 0.7469067
vn -0.9101334 0.4143153 0
vn -0.5920922 0.2447968 0.7677899
vn -1 0 0
vn -0.5889028 0 0.8082039
vn 0.8260643 0 0.5635757
vn 0.9999997 0 0.0007999998
vn 0.1485967 0.2324949 0.961179
vn -0.6010875 0.7991832 0
vn -1 0 0
vn -0.5497983 0 0.8352975
vn 0.4533975 0.8910951 0.01949989
vn 0.4501049 0.6218068 0.640907
vn 0.8562906 0.5164943 0
vn 0.4570736 0.155391 0.8757495
vn 0.9843558 -0.1761921 0
vn 0.7213023 -0.1247004 0.6813022
vn 0.7665631 0 0.6421691
vn 1 0 0
g sunglasses_0
f 3/3/3 2/2/2 1/1/1
f 4/4/4 1/1/1 2/2/2
f 5/5/5 4/4/4 2/2/2
f 5/5/5 2/2/2 6/6/6
f 6/6/6 2/2/2 7/7/7
f 2/2/2 8/8/8 7/7/7
f 8/8/8 2/2/2 3/3/3
f 7/7/7 8/8/8 9/9/9
f 8/8/8 10/10/10 9/9/9
f 10/10/10 8/8/8 11/11/11
f 8/8/8 12/12/12 11/11/11
f 3/3/3 12/12/12 8/8/8
f 11/11/11 13/13/13 10/10/10
f 13/13/13 14/14/14 10/10/10
f 10/10/10 14/14/14 9/9/9
f 14/14/14 15/15/15 9/9/9
f 16/16/16 6/6/6 7/7/7
f 17/17/17 16/16/16 7/7/7
f 7/7/7 9/9/9 18/18/18
f 17/17/17 7/7/7 18/18/18
f 9/9/9 15/15/15 19/19/19
f 18/18/18 9/9/9 19/19/19
f 19/19/19 15/15/15 20/20/20
f 15/15/15 21/21/21 20/20/20
f 22/22/22 20/20/20 21/21/21
f 23/23/23 22/22/22 21/21/21
f 24/24/24 23/23/23 21/21/21
f 25/25/25 24/24/24 21/21/21
f 15/15/15 14/14/14 25/25/25
f 21/21/21 15/15/15 25/25/25
f 24/24/24 25/25/25 26/26/26
f 26/26/26 25/25/25 27/27/27
f 14/14/14 13/13/13 27/27/27
f 25/25/25 14/14/14 27/27/27
f 24/24/24 26/26/26 28/28/28
f 29/29/29 24/24/24 28/28/28
f 28/28/28 30/30/30 29/29/29
f 30/30/30 31/31/31 29/29/29
f 20/20/20 22/22/22 32/32/32
f 22/22/22 33/33/33 32/32/32
f 33/33/33 34/34/34 32/32/32
f 34/34/34 35/35/35 32/32/32
f 35/35/35 34/34/34 36/36/36
f 34/34/34 37/37/37 36/36/36
f 36/36/36 38/38/38 35/35/35
f 38/38/38 39/39/39 35/35/35
f 38/38/38 40/40/40 39/39/39
f 40/40/40 38/38/38 41/41/41
f 42/42/42 40/40/40 41/41/41
f 42/42/42 41/41/41 43/43/43
f 44/44/44 42/42/42 43/43/43
f 40/40/40 45/45/45 39/39/39
f 38/38/38 36/36/36 46/46/46
f 41/41/41 38/38/38 46/46/46
f 41/41/41 46/46/46 47/47/47
f 43/43/43 41/41/41 47/47/47
f 46/46/46 48/48/48 47/47/47
f 46/46/46 49/49/49 48/48/48
f 36/36/36 37/37/37 49/49/49
f 46/46/46 36/36/36 49/49/49
f 48/48/48 49/49/49 50/50/50
f 49/49/49 51/51/51 50/50/50
f 30/30/30 50/50/50 51/51/51
f 31/31/31 30/30/30 51/51/51
f 42/42/42 44/44/44 52/52/52
f 42/42/42 52/52/52 40/40/40
f 44/44/44 53/53/53 52/52/52
f 52/52/52 54/54/54 40/40/40
f 52/52/52 55/55/55 54/54/54
f 55/55/55 56/56/56 54/54/54
f 56/56/56 55/55/55 57/57/57
f 58/58/58 56/56/56 57/57/57
f 59/59/59 57/57/57 55/55/55
f 60/60/60 59/59/59 55/55/55
f 55/55/55 61/61/61 60/60/60
f 53/53/53 61/61/61 52/52/52
f 55/55/55 52/52/52 61/61/61
f 56/56/56 62/62/62 54/54/54
f 56/56/56 58/58/58 62/62/62
f 62/62/62 63/63/63 54/54/54
f 54/54/54 63/63/63 45/45/45
f 40/40/40 54/54/54 45/45/45
f 64/64/64 6/6/6 16/16/16
f 64/64/64 5/5/5 6/6/6
f 67/67/67 66/66/66 65/65/65
f 68/68/68 67/67/67 65/65/65
f 69/69/69 67/67/67 68/68/68
f 70/70/70 69/69/69 68/68/68
f 69/69/69 70/70/70 71/71/71
f 72/72/72 69/69/69 71/71/71
f 73/73/73 72/72/72 71/71/71
f 74/74/74 72/72/72 73/73/73
f 75/75/75 74/74/74 73/73/73
f 74/74/74 75/75/75 76/76/76
f 77/77/77 74/74/74 76/76/76
f 65/65/65 66/66/66 78/78/78
f 79/79/79 65/65/65 78/78/78
f 79/79/79 78/78/78 80/80/80
f 81/81/81 79/79/79 80/80/80
f 81/81/81 80/80/80 82/82/82
f 83/83/83 81/81/81 82/82/82
f 83/83/83 82/82/82 84/84/84
f 85/85/85 83/83/83 84/84/84
f 85/85/85 84/84/84 86/86/86
f 87/87/87 85/85/85 86/86/86
f 87/87/87 86/86/86 88/88/88
f 89/89/89 87/87/87 88/88/88
f 89/89/89 88/88/88 90/90/90
f 91/91/91 89/89/89 90/90/90
f 91/91/91 90/90/90 92/92/92
f 93/93/93 91/91/91 92/92/92
f 93/93/93 92/92/92 94/94/94
f 95/95/95 93/93/93 94/94/94
f 95/95/95 94/94/94 96/96/96
f 97/97/97 95/95/95 96/96/96
f 96/96/96 98/98/98 97/97/97
f 98/98/98 99/99/99 97/97/97
f 102/102/102 101/101/101 100/100/100
f 103/103/103 102/102/102 100/100/100
f 102/102/102 103/103/103 104/104/104
f 103/103/103 105/105/105 104/104/104
f 104/104/104 105/105/105 106/106/106
f 105/105/105 107/107/107 106/106/106
f 100/100/100 101/101/101 108/108/108
f 109/109/109 100/100/100 108/108/108
f 107/107/107 110/110/110 106/106/106
f 110/110/110 111/111/111 106/106/106
f 114/114/114 113/113/113 112/112/112
f 115/115/115 114/114/114 112/112/112
f 114/114/114 116/116/116 113/113/113
f 116/116/116 117/117/117 113/113/113
f 118/118/118 117/117/117 116/116/116
f 119/119/119 118/118/118 116/116/116
f 119/119/119 120/120/120 118/118/118
f 119/119/119 121/121/121 120/120/120
f 121/121/121 122/122/122 120/120/120
f 115/115/115 112/112/112 123/123/123
f 112/112/112 124/124/124 123/123/123
f 123/123/123 124/124/124 125/125/125
f 124/124/124 126/126/126 125/125/125
f 125/125/125 126/126/126 127/127/127
f 126/126/126 128/128/128 127/127/127
f 127/127/127 128/128/128 129/129/129
f 128/128/128 130/130/130 129/129/129
f 129/129/129 130/130/130 131/131/131
f 130/130/130 132/132/132 131/131/131
f 131/131/131 132/132/132 133/133/133
f 132/132/132 134/134/134 133/133/133
f 133/133/133 134/134/134 135/135/135
f 134/134/134 136/136/136 135/135/135
f 135/135/135 136/136/136 137/137/137
f 136/136/136 138/138/138 137/137/137
f 137/137/137 138/138/138 139/139/139
f 138/138/138 140/140/140 139/139/139
f 139/139/139 140/140/140 141/141/141
f 140/140/140 142/142/142 141/141/141
f 143/143/143 141/141/141 142/142/142
f 144/144/144 143/143/143 142/142/142
f 121/121/121 146/146/146 145/145/145
f 122/122/122 121/121/121 145/145/145
f 149/149/149 148/148/148 147/147/147
f 150/150/150 149/149/149 147/147/147
f 148/148/148 151/151/151 147/147/147
f 151/151/151 152/152/152 147/147/147
f 152/152/152 151/151/151 153/153/153
f 154/154/154 152/152/152 153/153/153
f 154/154/154 153/153/153 155/155/155
f 156/156/156 154/154/154 155/155/155
f 156/156/156 155/155/155 157/157/157
f 155/155/155 158/158/158 157/157/157
