g banner
v 0.607412 0.1440748 0.1403648
v 0.607412 0.1731268 0.1403648
v 0.6054459 0.1731268 0.2507838
v 0.6054459 0.1440748 0.2507838
v 0.6054459 0.1440748 0.2507838
v 0.6054459 0.1731268 0.2507838
v 0.2507839 0.1731268 0.6054456
v 0.2507839 0.1440748 0.6054456
v -0.6054467 0.1440748 0.2507838
v -0.6054467 0.1731268 0.2507838
v -0.6074128 0.1731268 0.1403648
v -0.6074128 0.1440748 0.1403648
v -0.2507846 0.1440748 0.6054456
v -0.2507846 0.1731268 0.6054456
v -0.6054467 0.1731268 0.2507838
v -0.6054467 0.1440748 0.2507838
v 0.2507839 0.1440748 0.6054456
v 0.2507839 0.1731268 0.6054456
v -0.2507846 0.1731268 0.6054456
v -0.2507846 0.1440748 0.6054456
v 0.607412 0.1440748 -0.1403648
v 0.6054459 0.1440748 -0.2507838
v 0.6054459 0.1731268 -0.2507838
v 0.607412 0.1731268 -0.1403648
v 0.6054459 0.1440748 -0.2507838
v 0.2507839 0.1440748 -0.6054456
v 0.2507839 0.1731268 -0.6054456
v 0.6054459 0.1731268 -0.2507838
v -0.6054467 0.1440748 -0.2507838
v -0.6074128 0.1440748 -0.1403648
v -0.6074128 0.1731268 -0.1403648
v -0.6054467 0.1731268 -0.2507838
v -0.2507846 0.1440748 -0.6054456
v -0.6054467 0.1440748 -0.2507838
v -0.6054467 0.1731268 -0.2507838
v -0.2507846 0.1731268 -0.6054456
v 0.2507839 0.1440748 -0.6054456
v -0.2507846 0.1440748 -0.6054456
v -0.2507846 0.1731268 -0.6054456
v 0.2507839 0.1731268 -0.6054456
vt -1.907349E-06 0
vt -1.907349E-06 1
vt 3.814198 1
vt 3.814197 0
vt 3.814197 0
vt 3.814198 1
vt 21.10553 1
vt 21.10553 4.768372E-07
vt 55.68823 2.384186E-07
vt 55.68823 1
vt 59.50241 1
vt 59.50242 0
vt 38.39688 4.768372E-07
vt 38.39688 1
vt 55.68823 1
vt 55.68823 2.384186E-07
vt 21.10553 4.768372E-07
vt 21.10553 1
vt 38.39688 1
vt 38.39688 4.768372E-07
vt 59.50242 0
vt 55.68822 0
vt 55.68822 1
vt 59.50242 1
vt 55.68822 0
vt 38.3969 4.768372E-07
vt 38.3969 1
vt 55.68822 1
vt 3.81419 2.384186E-07
vt 0 0
vt 7.629395E-06 1
vt 3.81419 1
vt 21.10553 4.768372E-07
vt 3.81419 2.384186E-07
vt 3.81419 1
vt 21.10553 1
vt 38.3969 4.768372E-07
vt 21.10553 4.768372E-07
vt 21.10553 1
vt 38.3969 1
vn -1 0 0
vn -1 0 0
vn -1 0 0
vn -1 0 0
vn -0.7071066 0 -0.7071069
vn -0.7071066 0 -0.7071069
vn -0.7071066 0 -0.7071069
vn -0.7071066 0 -0.7071069
vn 1 0 0
vn 1 0 0
vn 1 0 0
vn 1 0 0
vn 0.7071066 0 -0.7071069
vn 0.7071066 0 -0.7071069
vn 0.7071066 0 -0.7071069
vn 0.7071066 0 -0.7071069
vn 0 0 -1
vn 0 0 -1
vn 0 0 -1
vn 0 0 -1
vn -1 0 0
vn -1 0 0
vn -1 0 0
vn -1 0 0
vn -0.7071066 0 0.7071069
vn -0.7071066 0 0.7071069
vn -0.7071066 0 0.7071069
vn -0.7071066 0 0.7071069
vn 1 0 0
vn 1 0 0
vn 1 0 0
vn 1 0 0
vn 0.7071066 0 0.7071069
vn 0.7071066 0 0.7071069
vn 0.7071066 0 0.7071069
vn 0.7071066 0 0.7071069
vn 0 0 1
vn 0 0 1
vn 0 0 1
vn 0 0 1
g banner_0
f 3/3/3 2/2/2 1/1/1
f 4/4/4 3/3/3 1/1/1
f 7/7/7 6/6/6 5/5/5
f 8/8/8 7/7/7 5/5/5
f 11/11/11 10/10/10 9/9/9
f 12/12/12 11/11/11 9/9/9
f 15/15/15 14/14/14 13/13/13
f 16/16/16 15/15/15 13/13/13
f 19/19/19 18/18/18 17/17/17
f 20/20/20 19/19/19 17/17/17
f 23/23/23 22/22/22 21/21/21
f 24/24/24 23/23/23 21/21/21
f 27/27/27 26/26/26 25/25/25
f 28/28/28 27/27/27 25/25/25
f 31/31/31 30/30/30 29/29/29
f 32/32/32 31/31/31 29/29/29
f 35/35/35 34/34/34 33/33/33
f 36/36/36 35/35/35 33/33/33
f 39/39/39 38/38/38 37/37/37
f 40/40/40 39/39/39 37/37/37
