g crowdBannerBack
v 0.2449466 0.3652908 -1.005064
v 0.2449466 0.4230434 -1.005064
v 0.3604515 0.4230434 -1.005064
v 0.3604515 0.3652908 -1.005064
v 0.727163 0.3883515 -0.7658612
v 0.727163 0.4461042 -0.7658612
v 0.808837 0.4461042 -0.6841869
v 0.808837 0.3883515 -0.6841869
v 0.8990451 0.360553 -0.5223305
v 0.8990451 0.427781 -0.5223305
v 0.9941199 0.427781 -0.4272558
v 0.9941199 0.360553 -0.4272558
v -0.1719268 0.3883515 -1.055727
v -0.1719268 0.4461041 -1.055727
v -0.05642175 0.4461041 -1.055727
v -0.05642175 0.3883515 -1.055727
v -0.5343511 0.3652909 -0.8870243
v -0.5343511 0.4230435 -0.8870243
v -0.4526767 0.4230435 -0.9686978
v -0.4526767 0.3652909 -0.9686978
v -0.8538926 0.3883515 -0.6391312
v -0.8538926 0.4461041 -0.6391312
v -0.7722185 0.4461041 -0.7208055
v -0.7722185 0.3883515 -0.7208055
v 0.2449466 0.3652908 1.005064
v 0.3604515 0.3652908 1.005064
v 0.3604515 0.4230434 1.005064
v 0.2449466 0.4230434 1.005064
v 0.727163 0.3883515 0.7658612
v 0.808837 0.3883515 0.6841869
v 0.808837 0.4461042 0.6841869
v 0.727163 0.4461042 0.7658612
v 0.8990451 0.360553 0.5223305
v 0.9941199 0.360553 0.4272558
v 0.9941199 0.427781 0.4272558
v 0.8990451 0.427781 0.5223305
v -0.1719268 0.3883515 1.055727
v -0.05642175 0.3883515 1.055727
v -0.05642175 0.4461041 1.055727
v -0.1719268 0.4461041 1.055727
v -0.5343511 0.3652909 0.8870243
v -0.4526767 0.3652909 0.9686978
v -0.4526767 0.4230435 0.9686978
v -0.5343511 0.4230435 0.8870243
v -0.8538926 0.3883515 0.6391313
v -0.7722185 0.3883515 0.7208055
v -0.7722185 0.4461041 0.7208055
v -0.8538926 0.4461041 0.6391313
vt 0 0
vt 0 0.33375
vt 1 0.33375
vt 1 0
vt 0 0
vt 0 0.33375
vt 1 0.33375
vt 1 0
vt 0 0
vt 0 0.33375
vt 1 0.33375
vt 1 0
vt 0 0
vt 0 0.33375
vt 1 0.33375
vt 1 0
vt 0 0
vt 0 0.33375
vt 1 0.33375
vt 1 0
vt 0 0
vt 0 0.33375
vt 1 0.33375
vt 1 0
vt 0 0
vt 1 0
vt 1 0.33375
vt 0 0.33375
vt 0 0
vt 1 0
vt 1 0.33375
vt 0 0.33375
vt 0 0.001250029
vt 1 0.001250029
vt 1 0.33375
vt 0 0.33375
vt 0 0.001250029
vt 1 0.001250029
vt 1 0.33375
vt 0 0.33375
vt 0 0
vt 1 0
vt 1 0.33375
vt 0 0.33375
vt 0 0
vt 1 0
vt 1 0.33375
vt 0 0.33375
vn 0 0 1
vn 0 0 1
vn 0 0 1
vn 0 0 1
vn -0.7071067 0 0.7071068
vn -0.7071067 0 0.7071068
vn -0.7071067 0 0.7071068
vn -0.7071067 0 0.7071068
vn -0.7071067 0 0.7071068
vn -0.7071067 0 0.7071068
vn -0.7071067 0 0.7071068
vn -0.7071067 0 0.7071068
vn 0 0 1
vn 0 0 1
vn 0 0 1
vn 0 0 1
vn 0.7071067 0 0.7071068
vn 0.7071067 0 0.7071068
vn 0.7071067 0 0.7071068
vn 0.7071067 0 0.7071068
vn 0.7071068 0 0.7071068
vn 0.7071068 0 0.7071068
vn 0.7071068 0 0.7071068
vn 0.7071068 0 0.7071068
vn 0 0 -1
vn 0 0 -1
vn 0 0 -1
vn 0 0 -1
vn -0.7071067 0 -0.7071068
vn -0.7071067 0 -0.7071068
vn -0.7071067 0 -0.7071068
vn -0.7071067 0 -0.7071068
vn -0.7071067 0 -0.7071068
vn -0.7071067 0 -0.7071068
vn -0.7071067 0 -0.7071068
vn -0.7071067 0 -0.7071068
vn 0 0 -1
vn 0 0 -1
vn 0 0 -1
vn 0 0 -1
vn 0.7071067 0 -0.7071068
vn 0.7071067 0 -0.7071068
vn 0.7071067 0 -0.7071068
vn 0.7071067 0 -0.7071068
vn 0.7071068 0 -0.7071068
vn 0.7071068 0 -0.7071068
vn 0.7071068 0 -0.7071068
vn 0.7071068 0 -0.7071068
g crowdBannerBack_0
f 3/3/3 2/2/2 1/1/1
f 4/4/4 3/3/3 1/1/1
f 7/7/7 6/6/6 5/5/5
f 8/8/8 7/7/7 5/5/5
f 11/11/11 10/10/10 9/9/9
f 12/12/12 11/11/11 9/9/9
f 15/15/15 14/14/14 13/13/13
f 16/16/16 15/15/15 13/13/13
f 19/19/19 18/18/18 17/17/17
f 20/20/20 19/19/19 17/17/17
f 23/23/23 22/22/22 21/21/21
f 24/24/24 23/23/23 21/21/21
f 27/27/27 26/26/26 25/25/25
f 28/28/28 27/27/27 25/25/25
f 31/31/31 30/30/30 29/29/29
f 32/32/32 31/31/31 29/29/29
f 35/35/35 34/34/34 33/33/33
f 36/36/36 35/35/35 33/33/33
f 39/39/39 38/38/38 37/37/37
f 40/40/40 39/39/39 37/37/37
f 43/43/43 42/42/42 41/41/41
f 44/44/44 43/43/43 41/41/41
f 47/47/47 46/46/46 45/45/45
f 48/48/48 47/47/47 45/45/45
