g f_necklace_star
v 0 84.22985 1.735682
v 0 83.22724 1.507572
v -0.8488201 83.29827 1.278626
v -0.9621094 84.29039 1.473278
v 0.9621094 84.29039 1.473278
v 0.8488201 83.29827 1.278626
v 0 83.22724 1.507572
v -0.985309 85.45714 -2.813724
v -0.9976065 84.50197 -3.069338
v 0 84.55448 -3.291069
v 0 85.49957 -3.027781
v -1.628465 84.40182 -2.597952
v -1.536871 85.37003 -2.400617
v -2.008437 85.2197 -1.715997
v -2.145622 84.24635 -1.990881
v -0.9976065 84.50197 -3.069338
v -0.985309 85.45714 -2.813724
v -2.178367 85.0184 -0.9156552
v -2.36113 84.05028 -1.155161
v -1.999606 83.75909 -0.1525032
v -2.060537 84.75292 0.009262384
v -1.61352 83.47428 0.7157941
v -1.711017 84.49044 0.8285527
v -0.8488201 83.29827 1.278626
v -0.9621094 84.29039 1.473278
v 0.985309 85.45714 -2.813724
v 0 85.49957 -3.027781
v 0 84.55448 -3.291069
v 0.9976065 84.50197 -3.069338
v 1.628465 84.40182 -2.597952
v 2.145622 84.24635 -1.990881
v 2.008437 85.2197 -1.715997
v 1.536871 85.37003 -2.400617
v 0.9976065 84.50197 -3.069338
v 0.985309 85.45714 -2.813724
v 2.178367 85.0184 -0.9156552
v 2.36113 84.05028 -1.155161
v 1.999606 83.75909 -0.1525032
v 2.060537 84.75292 0.009262384
v 1.61352 83.47428 0.7157941
v 1.711017 84.49044 0.8285527
v 0.8488201 83.29827 1.278626
v 0.9621094 84.29039 1.473278
v 1.678995 84.2657 0.894931
v 1.222701 83.79967 1.23966
v 0.6575374 84.24599 1.852122
v 1.290441 84.64643 1.329382
v 1.257769 82.93971 1.050876
v 1.794503 83.54944 0.656501
v 2.440137 83.46588 0.03411026
v 2.215644 84.24154 0.3858032
v 2.57065 85.09737 0.2069633
v 1.904111 84.91953 0.8016632
v 1.468932 85.57951 1.330551
vt 0.4972216 0.9833122
vt 0.4972216 0.9131275
vt 0.4304323 0.9131275
vt 0.4304323 0.9833122
vt 0.5640108 0.9833122
vt 0.5640108 0.9131275
vt 0.4972216 0.9131275
vt 0.07690988 0.9833122
vt 0.07690988 0.9131275
vt 0.009445593 0.9131275
vt 0.009445652 0.9833122
vt 0.123344 0.9131275
vt 0.123344 0.9833122
vt 0.1798188 0.9833122
vt 0.1798188 0.9131275
vt 0.07690988 0.9131275
vt 0.07690988 0.9833122
vt 0.2361457 0.9833122
vt 0.2361457 0.9131275
vt 0.3009537 0.9131275
vt 0.3009537 0.9833122
vt 0.363031 0.9131275
vt 0.363031 0.9833122
vt 0.4304323 0.9131275
vt 0.4304323 0.9833122
vt 0.9175332 0.9833122
vt 0.9849977 0.9833122
vt 0.9849977 0.9131275
vt 0.9175332 0.9131275
vt 0.8710991 0.9131275
vt 0.8146244 0.9131275
vt 0.8146244 0.9833122
vt 0.8710991 0.9833122
vt 0.9175332 0.9131275
vt 0.9175332 0.9833122
vt 0.7582977 0.9833122
vt 0.7582977 0.9131275
vt 0.6934894 0.9131275
vt 0.6934894 0.9833122
vt 0.6314123 0.9131275
vt 0.6314123 0.9833122
vt 0.5640108 0.9131275
vt 0.5640108 0.9833122
vt 0.09823094 0.811332
vt 0.05198788 0.7937332
vt 0.00872191 0.840103
vt 0.0695648 0.8483206
vt 0.04301602 0.7354702
vt 0.09823094 0.7600448
vt 0.1535359 0.7349986
vt 0.144915 0.7937334
vt 0.188027 0.8409044
vt 0.1269713 0.8484649
vt 0.09823094 0.905353
vn 0 -0.2225643 0.974918
vn 0 0.01571388 0.9998765
vn -0.4488822 -0.002786742 0.8935866
vn -0.4816957 -0.2008836 0.8530035
vn 0.4816957 -0.2008836 0.8530035
vn 0.4488822 -0.002786742 0.8935866
vn 0 0.01571388 0.9998765
vn -0.4242245 0.2411323 -0.8728625
vn -0.3767115 0.326124 -0.8670245
vn 0 0.2985822 -0.9543839
vn 0 0.2647767 -0.9643097
vn -0.6386301 0.4033487 -0.655333
vn -0.7053384 0.2231997 -0.6728147
vn -0.8993139 0.2224108 -0.376521
vn -0.801169 0.494863 -0.3365096
vn -0.3767115 0.326124 -0.8670245
vn -0.4242245 0.2411323 -0.8728625
vn -0.9931574 0.1126313 0.03086247
vn -0.8690172 0.4797058 0.1212075
vn -0.8368653 0.2850859 0.4673141
vn -0.9528251 -0.05017297 0.2993446
vn -0.7007018 0.09957641 0.7064712
vn -0.8245116 -0.1523924 0.5449376
vn -0.4488822 -0.002786742 0.8935866
vn -0.4816957 -0.2008836 0.8530035
vn 0.4242245 0.2411323 -0.8728625
vn 0 0.2647767 -0.9643097
vn 0 0.2985822 -0.9543839
vn 0.3767115 0.326124 -0.8670245
vn 0.6386301 0.4033487 -0.655333
vn 0.801169 0.494863 -0.3365096
vn 0.8993139 0.2224108 -0.376521
vn 0.7053384 0.2231997 -0.6728147
vn 0.3767115 0.326124 -0.8670245
vn 0.4242245 0.2411323 -0.8728625
vn 0.9931574 0.1126313 0.03086247
vn 0.8690172 0.4797058 0.1212075
vn 0.8368653 0.2850859 0.4673141
vn 0.9528251 -0.05017297 0.2993446
vn 0.7007018 0.09957641 0.7064712
vn 0.8245116 -0.1523924 0.5449376
vn 0.4488822 -0.002786742 0.8935866
vn 0.4816957 -0.2008836 0.8530035
vn 0.6792384 -0.1308482 0.7221593
vn 0.6792424 -0.1308449 0.722156
vn 0.6792421 -0.1308475 0.7221558
vn 0.67924 -0.1308469 0.7221579
vn 0.6792426 -0.1308425 0.7221563
vn 0.6792375 -0.1308503 0.7221596
vn 0.6792326 -0.130858 0.722163
vn 0.6792345 -0.1308526 0.7221621
vn 0.6792366 -0.1308468 0.7221612
vn 0.6792372 -0.1308465 0.7221606
vn 0.679238 -0.1308462 0.72216
g f_necklace_star_0
f 3/3/3 2/2/2 1/1/1
f 4/4/4 3/3/3 1/1/1
f 6/6/6 5/5/5 1/1/1
f 7/7/7 6/6/6 1/1/1
f 10/10/10 9/9/9 8/8/8
f 11/11/11 10/10/10 8/8/8
f 14/14/14 13/13/13 12/12/12
f 15/15/15 14/14/14 12/12/12
f 16/16/16 12/12/12 13/13/13
f 17/17/17 16/16/16 13/13/13
f 14/14/14 15/15/15 18/18/18
f 15/15/15 19/19/19 18/18/18
f 19/19/19 20/20/20 18/18/18
f 20/20/20 21/21/21 18/18/18
f 20/20/20 22/22/22 21/21/21
f 22/22/22 23/23/23 21/21/21
f 23/23/23 22/22/22 24/24/24
f 25/25/25 23/23/23 24/24/24
f 28/28/28 27/27/27 26/26/26
f 29/29/29 28/28/28 26/26/26
f 32/32/32 31/31/31 30/30/30
f 33/33/33 32/32/32 30/30/30
f 30/30/30 34/34/34 33/33/33
f 34/34/34 35/35/35 33/33/33
f 31/31/31 32/32/32 36/36/36
f 37/37/37 31/31/31 36/36/36
f 38/38/38 37/37/37 36/36/36
f 39/39/39 38/38/38 36/36/36
f 40/40/40 38/38/38 39/39/39
f 41/41/41 40/40/40 39/39/39
f 40/40/40 41/41/41 42/42/42
f 41/41/41 43/43/43 42/42/42
f 46/46/46 45/45/45 44/44/44
f 47/47/47 46/46/46 44/44/44
f 45/45/45 48/48/48 44/44/44
f 48/48/48 49/49/49 44/44/44
f 49/49/49 50/50/50 44/44/44
f 50/50/50 51/51/51 44/44/44
f 51/51/51 52/52/52 44/44/44
f 52/52/52 53/53/53 44/44/44
f 54/54/54 47/47/47 44/44/44
f 53/53/53 54/54/54 44/44/44
