<?xml version="1.0" encoding="UTF-8"?>
<svg width="375px" height="812px" viewBox="0 0 375 812" version="1.1" xmlns="http://www.w3.org/2000/svg" xmlns:xlink="http://www.w3.org/1999/xlink">
    <title>Background</title>
    <defs>
        <rect id="path-1" x="0" y="0" width="375" height="812"></rect>
    </defs>
    <g id="Social" stroke="none" stroke-width="1" fill="none" fill-rule="evenodd">
        <g id="Background">
            <rect id="Mask" fill-opacity="0.15" fill="#FFFFFF" x="0" y="0" width="375" height="812"></rect>
            <mask id="mask-2" fill="white">
                <use xlink:href="#path-1"></use>
            </mask>
            <use id="Mask" fill="#FFFFFF" xlink:href="#path-1"></use>
            <g id="Hills" mask="url(#mask-2)" fill-rule="nonzero">
                <g transform="translate(-360.719030, 584.000000)" id="Path">
                    <path d="M283.60636,226.583098 C127.25784,227.303708 0,230.411808 0,230.411808 C0,230.411808 150.84411,-62.4203618 282.77628,46.4727582 C414.70845,155.365878 566.18809,227.802268 566.18809,227.802268 C566.18809,227.802268 439.95488,225.862498 283.60636,226.583098 Z" fill="#1F6440"></path>
                    <path d="M578.58492,185.533718 C370.79609,186.491438 201.66421,189.561528 201.66421,189.561528 C201.66421,189.561528 402.70403,-76.7362518 577.83094,21.9251982 C752.95785,120.586648 954.13412,186.093338 954.13412,186.093338 C954.13412,186.093338 786.37375,184.575978 578.58492,185.533718 Z" fill="#1F6440"></path>
                    <path d="M295.32865,229.385978 C138.98023,230.106598 11.71903,232.473088 11.71903,232.473088 C11.71903,232.473088 162.95912,25.5616282 294.74274,102.249208 C426.52636,178.936788 577.90674,229.863488 577.90674,229.863488 C577.90674,229.863488 451.67703,228.665358 295.32865,229.385978 Z" fill="#67946B"></path>
                    <path d="M604.30777,227.805028 C447.95925,228.525648 320.69777,230.835708 320.69777,230.835708 C320.69777,230.835708 471.96803,30.4627282 603.74045,104.699508 C735.51287,178.936288 886.88583,228.226098 886.88583,228.226098 C886.88583,228.226098 760.6563,227.084398 604.30777,227.805028 Z" fill="#67946B"></path>
                    <path d="M869.931875,225.487709 C687.401774,226.328632 538.83142,229.444868 538.83142,229.444868 C538.83142,229.444868 715.208262,-53.0999107 869.131043,51.7921639 C1023.05382,156.684239 1199.83142,226.399629 1199.83142,226.399629 C1199.83142,226.399629 1052.46199,224.646786 869.931875,225.487709 Z" fill="#67946B"></path>
                </g>
            </g>
        </g>
    </g>
</svg>