<svg xmlns="http://www.w3.org/2000/svg" xmlns:xlink="http://www.w3.org/1999/xlink" width="375" height="812" viewBox="0 0 375 812">
    <defs>
        <path id="iosastqpxa" d="M0 0H375V812H0z"/>
    </defs>
    <g fill="none" fill-rule="evenodd">
        <g>
            <path fill="#FFF" fill-opacity=".15" d="M0 0H375V812H0z"/>
            <mask id="qp210lb1qb" fill="#fff">
                <use xlink:href="#iosastqpxa"/>
            </mask>
            <use fill="#FFF" xlink:href="#iosastqpxa"/>
            <g fill-rule="nonzero" mask="url(#qp210lb1qb)">
                <g transform="translate(259 385)">
                    <circle cx="98.5" cy="147.5" r="39.5" fill="#C0C7D0"/>
                    <path fill="#B1B6BD" d="M87.008 204.82l9.683 5.99v-40.49l-10.854-6.714c-.897-.555-1.553-1.426-1.837-2.441 1.037-.198 2.11 0 3.008.556l9.683 5.99V152.01c0-3.037.373-6.063 1.11-9.01.739 2.947 1.112 5.973 1.112 9.01v25.626l14.285-8.837c1.14-.705 2.46-1.069 3.802-1.047-.578 1.21-1.491 2.227-2.632 2.933l-15.455 9.56V276H96.69v-62.58l-10.854-6.715c-.897-.555-1.553-1.426-1.837-2.441 1.037-.198 2.11 0 3.008.556z"/>
                    <circle cx="39.5" cy="151.5" r="39.5" fill="#C0C7D0"/>
                    <path fill="#B1B6BD" d="M49.992 208.355l-9.683 6.042v-40.84l10.854-6.772c.897-.56 1.553-1.44 1.837-2.463-1.037-.2-2.11 0-3.008.56l-9.683 6.043v-15.837c0-3.064-.373-6.116-1.11-9.088-.739 2.972-1.112 6.024-1.112 9.088v25.848l-14.285-8.913c-1.14-.712-2.46-1.078-3.802-1.056.578 1.22 1.491 2.246 2.632 2.958l15.455 9.644V277h2.222v-59.97l10.854-6.773c.897-.56 1.553-1.439 1.837-2.462-1.037-.2-2.11 0-3.008.56z"/>
                    <circle cx="68" cy="68" r="68" fill="#C0C7D0"/>
                    <path fill="#B1B6BD" d="M86.714 149.808l-17.019 10.349V90.202l19.076-11.6c1.577-.959 2.73-2.464 3.229-4.218-1.822-.341-3.71.001-5.286.96l-17.019 10.35V58.566c0-5.248-.656-10.476-1.952-15.567-1.297 5.091-1.953 10.319-1.953 15.567v44.275L40.683 87.574c-2.005-1.219-4.325-1.847-6.683-1.809 1.015 2.09 2.62 3.848 4.625 5.067l27.165 16.519V288h3.905V164.666l19.076-11.6c1.577-.96 2.73-2.465 3.229-4.218-1.822-.342-3.71.001-5.286.96z"/>
                </g>
            </g>
            <g fill-rule="nonzero" mask="url(#qp210lb1qb)">
                <g>
                    <path fill="#1F6440" d="M283.606 226.583C127.258 227.303 0 230.412 0 230.412S150.844-62.42 282.776 46.472c131.932 108.894 283.412 181.33 283.412 181.33s-126.233-1.94-282.582-1.219z" transform="translate(-360.719 584)"/>
                    <path fill="#1F6440" d="M578.585 185.534c-207.789.957-376.92 4.028-376.92 4.028S402.703-76.736 577.83 21.925c175.127 98.662 376.303 164.168 376.303 164.168s-167.76-1.517-375.55-.56z" transform="translate(-360.719 584)"/>
                    <path fill="#67946B" d="M295.329 229.386c-156.349.72-283.61 3.087-283.61 3.087S162.959 25.562 294.743 102.25c131.783 76.688 283.164 127.614 283.164 127.614s-126.23-1.198-282.578-.477z" transform="translate(-360.719 584)"/>
                    <path fill="#67946B" d="M604.308 227.805c-156.349.72-283.61 3.03-283.61 3.03S471.968 30.464 603.74 104.7c131.773 74.236 283.146 123.526 283.146 123.526s-126.23-1.142-282.578-.421z" transform="translate(-360.719 584)"/>
                    <path fill="#67946B" d="M869.932 225.488c-182.53.84-331.1 3.957-331.1 3.957S715.207-53.1 869.13 51.792c153.923 104.892 330.7 174.608 330.7 174.608s-147.369-1.753-329.9-.912z" transform="translate(-360.719 584)"/>
                </g>
            </g>
        </g>
    </g>
</svg>
