g inner_top
v -0.2677521 1.571298 -0.8240291
v -0.2355019 5.066395E-06 -0.7247865
v -5.066395E-06 5.066395E-06 -0.7611284
v -5.066395E-06 1.571298 -0.8653555
v 0.2354918 5.066395E-06 -0.7247865
v 0.2677419 1.571298 -0.8240291
v 0.4473682 5.066395E-06 -0.6157609
v 0.5086323 1.571298 -0.7000874
v 0.616542 5.066395E-06 -0.4479634
v 0.7009429 1.571298 -0.5092647
v 0.8229876 1.571298 -0.2674071
v 0.7238938 5.066395E-06 -0.2351941
v 0.7620955 5.066395E-06 5.066395E-06
v 0.8664342 1.571298 5.066395E-06
v 0.7238938 5.066395E-06 0.2352043
v 0.8229876 1.571298 0.2674172
v 0.616542 5.066395E-06 0.4479363
v 0.7009429 1.571298 0.5092748
v 0.5086323 1.571298 0.7000604
v 0.4473682 5.066395E-06 0.6157711
v 0.2354918 5.066395E-06 0.7247967
v 0.2677419 1.571298 0.8240393
v -5.066395E-06 5.066395E-06 0.7611384
v -5.066395E-06 1.571298 0.8653284
v -0.2355019 5.066395E-06 0.7247967
v -0.2677521 1.571298 0.8240393
v -0.4473783 5.066395E-06 0.6157711
v -0.5086424 1.571298 0.7000604
v -0.6165521 5.066395E-06 0.4479363
v -0.7009531 1.571298 0.5092748
v -0.7238667 5.066395E-06 0.2352043
v -0.8229978 1.571298 0.2674172
v -0.7621056 5.066395E-06 5.066395E-06
v -0.8664443 1.571298 5.066395E-06
v -0.7238667 5.066395E-06 -0.2351941
v -0.8229978 1.571298 -0.2674071
v -0.6165521 5.066395E-06 -0.4479634
v -0.7009531 1.571298 -0.5092647
v -0.4473783 5.066395E-06 -0.6157609
v -0.5086424 1.571298 -0.7000874
v -0.2355019 5.066395E-06 -0.7247865
v -0.2677521 1.571298 -0.8240291
vt 1 1
vt 1 0
vt 0.9501466 0
vt 0.9501466 1
vt 0.9002932 0
vt 0.9002932 1
vt 0.8504399 0
vt 0.8504399 1
vt 0.799609 0
vt 0.799609 1
vt 0.7497556 1
vt 0.7497556 0
vt 0.6999022 0
vt 0.6999022 1
vt 0.6500489 0
vt 0.6500489 1
vt 0.6001955 0
vt 0.6001955 1
vt 0.5503421 1
vt 0.5503421 0
vt 0.5004888 0
vt 0.5004888 1
vt 0.4496579 0
vt 0.4496579 1
vt 0.3998045 0
vt 0.3998045 1
vt 0.3499511 0
vt 0.3499511 1
vt 0.3000978 0
vt 0.3000978 1
vt 0.2502444 0
vt 0.2502444 1
vt 0.200391 0
vt 0.200391 1
vt 0.1495601 0
vt 0.1495601 1
vt 0.09970675 0
vt 0.09970675 1
vt 0.04985337 0
vt 0.04985337 1
vt 0 0
vt 0 1
vn -0.3091178 -0.06651902 -0.9486946
vn -0.3091178 -0.06651902 -0.9486946
vn -0.003912926 -0.06651902 -0.9977775
vn -0.003912926 -0.06651902 -0.9977775
vn 0.3091178 -0.06651902 -0.9486946
vn 0.3091178 -0.06651902 -0.9486946
vn 0.5830196 -0.06651902 -0.8097304
vn 0.5830196 -0.06651902 -0.8097304
vn 0.8099668 -0.06651902 -0.5826912
vn 0.8099668 -0.06651902 -0.5826912
vn 0.9508306 -0.06651902 -0.3024836
vn 0.9508306 -0.06651902 -0.3024836
vn 0.9977852 -0.06651902 0
vn 0.9977852 -0.06651902 0
vn 0.9508306 -0.06651902 0.3024836
vn 0.9508306 -0.06651902 0.3024836
vn 0.8099668 -0.06651902 0.5826912
vn 0.8099668 -0.06651902 0.5826912
vn 0.5830196 -0.06651902 0.8097304
vn 0.5830196 -0.06651902 0.8097304
vn 0.3091178 -0.06651902 0.9486946
vn 0.3091178 -0.06651902 0.9486946
vn 0.003912866 -0.06651902 0.9977775
vn 0.003912866 -0.06651902 0.9977775
vn -0.3091178 -0.06651902 0.9486946
vn -0.3091178 -0.06651902 0.9486946
vn -0.5830196 -0.06651902 0.8097304
vn -0.5830196 -0.06651902 0.8097304
vn -0.8099668 -0.06651902 0.5826912
vn -0.8099668 -0.06651902 0.5826912
vn -0.9508306 -0.06651902 0.3024838
vn -0.9508306 -0.06651902 0.3024838
vn -0.9977852 -0.06651902 0
vn -0.9977852 -0.06651902 0
vn -0.9508306 -0.06651902 -0.3024838
vn -0.9508306 -0.06651902 -0.3024838
vn -0.8099668 -0.06651902 -0.5826912
vn -0.8099668 -0.06651902 -0.5826912
vn -0.5830196 -0.06651902 -0.8097304
vn -0.5830196 -0.06651902 -0.8097304
vn -0.3091178 -0.06651902 -0.9486946
vn -0.3091178 -0.06651902 -0.9486946
g inner_top_0
f 3/3/3 2/2/2 1/1/1
f 4/4/4 3/3/3 1/1/1
f 5/5/5 3/3/3 4/4/4
f 6/6/6 5/5/5 4/4/4
f 7/7/7 5/5/5 6/6/6
f 8/8/8 7/7/7 6/6/6
f 9/9/9 7/7/7 8/8/8
f 10/10/10 9/9/9 8/8/8
f 10/10/10 11/11/11 9/9/9
f 11/11/11 12/12/12 9/9/9
f 13/13/13 12/12/12 11/11/11
f 14/14/14 13/13/13 11/11/11
f 15/15/15 13/13/13 14/14/14
f 16/16/16 15/15/15 14/14/14
f 17/17/17 15/15/15 16/16/16
f 18/18/18 17/17/17 16/16/16
f 17/17/17 18/18/18 19/19/19
f 20/20/20 17/17/17 19/19/19
f 21/21/21 20/20/20 19/19/19
f 22/22/22 21/21/21 19/19/19
f 23/23/23 21/21/21 22/22/22
f 24/24/24 23/23/23 22/22/22
f 25/25/25 23/23/23 24/24/24
f 26/26/26 25/25/25 24/24/24
f 27/27/27 25/25/25 26/26/26
f 28/28/28 27/27/27 26/26/26
f 29/29/29 27/27/27 28/28/28
f 30/30/30 29/29/29 28/28/28
f 31/31/31 29/29/29 30/30/30
f 32/32/32 31/31/31 30/30/30
f 33/33/33 31/31/31 32/32/32
f 34/34/34 33/33/33 32/32/32
f 35/35/35 33/33/33 34/34/34
f 36/36/36 35/35/35 34/34/34
f 37/37/37 35/35/35 36/36/36
f 38/38/38 37/37/37 36/36/36
f 39/39/39 37/37/37 38/38/38
f 40/40/40 39/39/39 38/38/38
f 41/41/41 39/39/39 40/40/40
f 42/42/42 41/41/41 40/40/40
